<svg width="796" height="136" viewBox="0 0 796 136" fill="none" xmlns="http://www.w3.org/2000/svg">
<g clip-path="url(#clip0_1169_143)">
<path d="M767.022 51.3628C755.206 51.3628 749.234 59.0524 748.065 70.3914H784.291C783.642 58.2704 778.189 51.3628 767.022 51.3628ZM791.952 105.06C786.629 107.927 778.448 108.97 771.826 108.97C747.546 108.97 736.898 94.8941 736.898 74.9531C736.898 55.2728 747.808 41.1968 767.544 41.1968C787.54 41.1968 795.591 55.1424 795.591 74.9531V80.0361H748.195C749.753 91.1144 756.894 98.2828 772.216 98.2828C779.747 98.2828 786.109 96.8491 791.952 94.7638V105.06Z" fill="black"/>
<path d="M728.05 95.9368V105.972C724.154 108.058 718.181 108.97 712.209 108.97C689.096 108.97 678.319 94.8941 678.319 74.9531C678.319 55.2728 689.096 41.1968 712.209 41.1968C718.052 41.1968 722.596 41.9788 727.66 44.3248V54.7514C723.505 52.7964 719.09 51.6234 712.988 51.6234C696.108 51.6234 689.226 62.3108 689.226 74.9531C689.226 87.5954 696.238 98.2828 713.247 98.2828C719.869 98.2828 724.024 97.3704 728.05 95.9368Z" fill="black"/>
<path d="M666.645 69.4791V107.667H655.478V68.3061C655.478 56.5761 650.804 51.3628 640.156 51.3628C629.769 51.3628 622.628 58.2704 622.628 71.4341V107.667H611.461V42.5001H622.628V53.1874C626.783 45.4978 634.443 41.1968 643.143 41.1968C658.075 41.1968 666.645 51.4931 666.645 69.4791Z" fill="black"/>
<path d="M569.594 51.3628C557.779 51.3628 551.806 59.0524 550.637 70.3914H586.864C586.215 58.2704 580.761 51.3628 569.594 51.3628ZM594.525 105.06C589.201 107.927 581.021 108.97 574.399 108.97C550.118 108.97 539.471 94.8941 539.471 74.9531C539.471 55.2728 550.378 41.1968 570.114 41.1968C590.11 41.1968 598.16 55.1424 598.16 74.9531V80.0361H550.767C552.325 91.1144 559.467 98.2828 574.788 98.2828C582.319 98.2828 588.682 96.8491 594.525 94.7638V105.06Z" fill="black"/>
<path d="M471.316 80.6877V42.5H482.483V81.8607C482.483 93.5907 487.157 98.804 497.805 98.804C508.192 98.804 515.333 91.8963 515.333 78.7327V42.5H526.5V107.667H515.333V96.9793C511.178 104.669 503.518 108.97 494.818 108.97C479.886 108.97 471.316 98.6737 471.316 80.6877Z" fill="black"/>
<path d="M461.869 107.536C460.96 107.796 459.012 108.057 456.156 108.057C445.509 108.057 438.757 102.974 438.757 90.9833V15.2598H449.923V89.68C449.923 95.545 453.819 97.6303 458.623 97.6303C459.792 97.6303 460.571 97.6303 461.869 97.5V107.536Z" fill="black"/>
<path d="M409.956 35.592V42.4997H426.706V52.9264H409.956V107.666H399.05V52.9264H388.532V42.4997H399.05V35.3314C399.05 23.2105 405.802 14.9995 419.695 14.9995C423.071 14.9995 425.278 15.5208 427.226 16.0422V26.3385C425.278 25.9475 422.811 25.6868 420.214 25.6868C413.332 25.6868 409.956 29.727 409.956 35.592Z" fill="black"/>
<path d="M378.933 69.4791V107.667H367.766V68.3061C367.766 56.5761 363.092 51.3628 352.445 51.3628C342.057 51.3628 334.916 58.2704 334.916 71.4341V107.667H323.749V42.5001H334.916V53.1874C339.071 45.4978 346.731 41.1968 355.431 41.1968C370.363 41.1968 378.933 51.4931 378.933 69.4791Z" fill="black"/>
<path d="M280.127 108.97C260.651 108.97 249.225 94.5031 249.225 74.9531C249.225 55.4031 260.651 41.1968 280.127 41.1968C299.474 41.1968 310.771 55.4031 310.771 74.9531C310.771 94.5031 299.474 108.97 280.127 108.97ZM280.127 51.6234C266.234 51.6234 260.131 62.5714 260.131 74.9531C260.131 87.3348 266.234 98.5434 280.127 98.5434C293.891 98.5434 299.864 87.3348 299.864 74.9531C299.864 62.5714 293.891 51.6234 280.127 51.6234Z" fill="black"/>
<path d="M241.035 92.5476V103.887C235.711 107.406 227.271 108.97 218.442 108.97C190.396 108.97 174.555 92.0263 174.555 65.0473C174.555 38.9806 190.396 20.7339 218.182 20.7339C226.492 20.7339 234.802 22.2979 240.905 26.7292V38.0683C234.802 34.1583 228.05 32.073 218.182 32.073C198.186 32.073 186.241 45.367 186.241 65.0473C186.241 84.7276 198.576 97.761 218.831 97.761C227.791 97.761 234.802 95.6756 241.035 92.5476Z" fill="black"/>
<path d="M0 34C0 15.2223 15.1652 0 33.8723 0H101.617C120.324 0 135.489 15.2223 135.489 34V102C135.489 120.778 120.324 136 101.617 136H33.8723C15.1652 136 0 120.778 0 102V34Z" fill="#1868DB"/>
<mask id="mask0_1169_143" style="mask-type:luminance" maskUnits="userSpaceOnUse" x="32" y="34" width="71" height="68">
<path d="M102.523 34.5312H32.6377V101.596H102.523V34.5312Z" fill="white"/>
</mask>
<g mask="url(#mask0_1169_143)">
<path d="M98.0596 80.8353C77.1527 70.688 71.045 69.1719 62.2362 69.1719C51.9001 69.1719 43.091 73.4873 35.2216 85.6174L33.9296 87.6001C32.8725 89.233 32.6377 89.8161 32.6377 90.5159C32.6377 91.2158 32.99 91.7989 34.2819 92.6154L47.5542 100.896C48.2591 101.363 48.8465 101.596 49.4336 101.596C50.1384 101.596 50.6081 101.246 51.3129 100.197L53.4271 96.9309C56.7159 91.9156 59.652 90.2827 63.4107 90.2827C66.6994 90.2827 70.5753 91.2158 75.3908 93.5485L89.2505 100.08C90.6599 100.78 92.1867 100.43 92.8915 98.7969L99.4689 84.3342C100.174 82.7013 99.7038 81.6516 98.0596 80.8353ZM37.1009 55.2922C58.0078 65.4395 64.1153 66.9556 72.9243 66.9556C83.2602 66.9556 92.0693 62.6402 99.9387 50.5101L101.231 48.5274C102.288 46.8945 102.523 46.3114 102.523 45.6116C102.523 44.9117 102.17 44.3286 100.878 43.5121L87.606 35.2311C86.9015 34.7644 86.3141 34.5312 85.7269 34.5312C85.0221 34.5312 84.5524 34.8812 83.8476 35.9309L81.7334 39.1966C78.4447 44.2119 75.5085 45.8447 71.7498 45.8447C68.4611 45.8447 64.5852 44.9117 59.7694 42.579L45.91 36.0474C44.5006 35.3478 42.9736 35.6977 42.269 37.3306L35.6916 51.7933C34.9867 53.4262 35.4567 54.4759 37.1009 55.2922Z" fill="white"/>
</g>
</g>
<defs>
<clipPath id="clip0_1169_143">
<rect width="796" height="136" fill="white"/>
</clipPath>
</defs>
</svg>
