<svg width="796" height="136" viewBox="0 0 796 136" fill="none" xmlns="http://www.w3.org/2000/svg">
<g clip-path="url(#clip0_1107_273)">
<path d="M767.022 51.3627C755.206 51.3627 749.234 59.0523 748.065 70.3913H784.291C783.642 58.2703 778.189 51.3627 767.022 51.3627ZM791.952 105.06C786.629 107.927 778.448 108.97 771.826 108.97C747.546 108.97 736.898 94.894 736.898 74.953C736.898 55.2727 747.808 41.1967 767.544 41.1967C787.54 41.1967 795.591 55.1423 795.591 74.953V80.036H748.195C749.753 91.1143 756.894 98.2827 772.216 98.2827C779.747 98.2827 786.109 96.849 791.952 94.7637V105.06Z" fill="white"/>
<path d="M728.049 95.9367V105.972C724.154 108.058 718.181 108.97 712.208 108.97C689.096 108.97 678.319 94.894 678.319 74.953C678.319 55.2727 689.096 41.1967 712.208 41.1967C718.051 41.1967 722.596 41.9787 727.66 44.3247V54.7513C723.505 52.7963 719.09 51.6233 712.987 51.6233C696.107 51.6233 689.226 62.3107 689.226 74.953C689.226 87.5953 696.237 98.2827 713.247 98.2827C719.869 98.2827 724.024 97.3703 728.049 95.9367Z" fill="white"/>
<path d="M666.645 69.479V107.667H655.478V68.306C655.478 56.576 650.804 51.3627 640.156 51.3627C629.769 51.3627 622.628 58.2703 622.628 71.434V107.667H611.461V42.5H622.628V53.1873C626.783 45.4977 634.443 41.1967 643.143 41.1967C658.075 41.1967 666.645 51.493 666.645 69.479Z" fill="white"/>
<path d="M569.594 51.3627C557.779 51.3627 551.806 59.0523 550.637 70.3913H586.864C586.215 58.2703 580.761 51.3627 569.594 51.3627ZM594.525 105.06C589.201 107.927 581.021 108.97 574.399 108.97C550.118 108.97 539.471 94.894 539.471 74.953C539.471 55.2727 550.378 41.1967 570.114 41.1967C590.11 41.1967 598.16 55.1423 598.16 74.953V80.036H550.767C552.325 91.1143 559.467 98.2827 574.788 98.2827C582.319 98.2827 588.682 96.849 594.525 94.7637V105.06Z" fill="white"/>
<path d="M471.317 80.6877V42.5H482.483V81.8607C482.483 93.5907 487.158 98.804 497.805 98.804C508.193 98.804 515.334 91.8963 515.334 78.7327V42.5H526.501V107.667H515.334V96.9793C511.179 104.669 503.518 108.97 494.819 108.97C479.887 108.97 471.317 98.6737 471.317 80.6877Z" fill="white"/>
<path d="M461.869 107.535C460.96 107.796 459.012 108.057 456.156 108.057C445.509 108.057 438.757 102.974 438.757 90.9831V15.2596H449.923V89.6798C449.923 95.5448 453.819 97.6302 458.623 97.6302C459.792 97.6302 460.571 97.6302 461.869 97.4998V107.535Z" fill="white"/>
<path d="M409.957 35.5921V42.4997H426.707V52.9264H409.957V107.666H399.05V52.9264H388.533V42.4997H399.05V35.3314C399.05 23.2105 405.802 14.9995 419.695 14.9995C423.071 14.9995 425.279 15.5209 427.226 16.0422V26.3385C425.279 25.9475 422.812 25.6869 420.215 25.6869C413.333 25.6869 409.957 29.7271 409.957 35.5921Z" fill="white"/>
<path d="M378.933 69.479V107.667H367.766V68.306C367.766 56.576 363.092 51.3627 352.445 51.3627C342.057 51.3627 334.916 58.2703 334.916 71.434V107.667H323.749V42.5H334.916V53.1873C339.071 45.4977 346.731 41.1967 355.431 41.1967C370.363 41.1967 378.933 51.493 378.933 69.479Z" fill="white"/>
<path d="M280.127 108.97C260.65 108.97 249.224 94.503 249.224 74.953C249.224 55.403 260.65 41.1967 280.127 41.1967C299.474 41.1967 310.77 55.403 310.77 74.953C310.77 94.503 299.474 108.97 280.127 108.97ZM280.127 51.6233C266.234 51.6233 260.131 62.5713 260.131 74.953C260.131 87.3347 266.234 98.5433 280.127 98.5433C293.89 98.5433 299.863 87.3347 299.863 74.953C299.863 62.5713 293.89 51.6233 280.127 51.6233Z" fill="white"/>
<path d="M241.035 92.5477V103.887C235.711 107.406 227.271 108.97 218.442 108.97C190.396 108.97 174.555 92.0264 174.555 65.0474C174.555 38.9807 190.396 20.734 218.182 20.734C226.492 20.734 234.802 22.298 240.905 26.7293V38.0684C234.802 34.1584 228.05 32.073 218.182 32.073C198.186 32.073 186.241 45.367 186.241 65.0474C186.241 84.7277 198.576 97.761 218.831 97.761C227.791 97.761 234.802 95.6757 241.035 92.5477Z" fill="white"/>
<path d="M0 34C0 15.2223 15.1652 0 33.8723 0H101.617C120.324 0 135.489 15.2223 135.489 34V102C135.489 120.778 120.324 136 101.617 136H33.8723C15.1652 136 0 120.778 0 102V34Z" fill="#1868DB"/>
<mask id="mask0_1107_273" style="mask-type:luminance" maskUnits="userSpaceOnUse" x="32" y="34" width="71" height="68">
<path d="M102.522 34.5312H32.6372V101.596H102.522V34.5312Z" fill="white"/>
</mask>
<g mask="url(#mask0_1107_273)">
<path d="M98.0591 80.8353C77.1522 70.688 71.0445 69.1719 62.2357 69.1719C51.8996 69.1719 43.0905 73.4873 35.2211 85.6174L33.9292 87.6001C32.8721 89.233 32.6372 89.8161 32.6372 90.5159C32.6372 91.2158 32.9895 91.7989 34.2814 92.6154L47.5537 100.896C48.2586 101.363 48.846 101.596 49.4331 101.596C50.1379 101.596 50.6076 101.246 51.3124 100.197L53.4266 96.9309C56.7154 91.9156 59.6515 90.2827 63.4102 90.2827C66.699 90.2827 70.5748 91.2158 75.3903 93.5485L89.25 100.08C90.6594 100.78 92.1862 100.43 92.891 98.7969L99.4685 84.3342C100.173 82.7013 99.7033 81.6516 98.0591 80.8353ZM37.1005 55.2922C58.0073 65.4395 64.1148 66.9556 72.9238 66.9556C83.2597 66.9556 92.0688 62.6402 99.9382 50.5101L101.23 48.5274C102.287 46.8945 102.522 46.3114 102.522 45.6116C102.522 44.9117 102.17 44.3286 100.878 43.5121L87.6055 35.2311C86.901 34.7644 86.3136 34.5312 85.7265 34.5312C85.0216 34.5312 84.5519 34.8812 83.8471 35.9309L81.7329 39.1966C78.4442 44.2119 75.508 45.8447 71.7493 45.8447C68.4606 45.8447 64.5848 44.9117 59.769 42.579L45.9095 36.0474C44.5001 35.3478 42.9731 35.6977 42.2685 37.3306L35.6911 51.7933C34.9863 53.4262 35.4562 54.4759 37.1005 55.2922Z" fill="white"/>
</g>
</g>
<defs>
<clipPath id="clip0_1107_273">
<rect width="796" height="136" fill="white"/>
</clipPath>
</defs>
</svg>
