<svg width="706" height="169" viewBox="0 0 706 169" fill="none" xmlns="http://www.w3.org/2000/svg">
<g clip-path="url(#clip0_1169_121)">
<path d="M73.5958 84.5L146.495 126.791C146.047 127.571 145.397 128.236 144.593 128.702L76.4561 168.23C74.6869 169.257 72.5046 169.257 70.7354 168.23L2.59841 128.702C1.79424 128.236 1.14459 127.571 0.696777 126.791L73.5958 84.5Z" fill="#72716D"/>
<path d="M73.5959 0V84.5L0.696949 126.791C0.249136 126.012 0 125.112 0 124.18V44.8199C0 42.9535 0.990235 41.2328 2.59858 40.298L70.7325 0.770025C71.6186 0.256675 72.6057 0 73.5928 0H73.5959Z" fill="#55544F"/>
<path d="M146.492 42.2088C146.044 41.4293 145.394 40.7638 144.59 40.298L76.4529 0.770025C75.5699 0.256675 74.5828 0 73.5957 0V84.5L146.495 126.791C146.943 126.012 147.192 125.112 147.192 124.18V44.8199C147.192 43.8851 146.946 42.9915 146.495 42.2088H146.492Z" fill="#43413C"/>
<path d="M141.392 45.1687C141.806 45.8848 141.862 46.8038 141.392 47.6214L75.2201 162.783C74.7754 163.562 73.5928 163.242 73.5928 162.346V86.4585C73.5928 85.8533 73.432 85.2702 73.1387 84.7601L141.389 45.1655H141.392V45.1687Z" fill="#D6D5D2"/>
<path d="M141.392 45.1687L73.1418 84.7632C72.8516 84.2562 72.429 83.8253 71.9055 83.5211L6.50269 45.5775C5.7269 45.1307 6.04541 43.9424 6.93789 43.9424H139.279C140.219 43.9424 140.982 44.4526 141.392 45.1687Z" fill="white"/>
<path d="M227.83 43.9487H256.414V59.7707H228.798C213.9 59.7707 202.273 68.4121 202.273 86.6677C202.273 104.923 213.9 113.565 228.798 113.565H256.414V129.387H226.619C201.667 129.387 183.985 114.661 183.985 86.6709C183.985 58.6806 202.878 43.9551 227.83 43.9551V43.9487Z" fill="black"/>
<path d="M270.949 43.9487H288.632V96.1584C288.632 109.179 294.567 115.266 308.496 115.266C322.426 115.266 328.361 109.182 328.361 96.1584V43.9487H346.043V99.8088C346.043 118.793 334.053 130.844 308.496 130.844C282.939 130.844 270.949 118.673 270.949 99.6884V43.9487Z" fill="black"/>
<path d="M438.453 68.1681C438.453 77.6619 433.004 84.9629 425.735 88.1285V88.3725C433.366 89.469 437.242 94.9447 437.362 102.369L437.725 129.387H420.042L419.68 105.291C419.56 99.9356 416.409 96.6495 410.112 96.6495H380.679V129.387H362.997V43.9487H411.808C427.797 43.9487 438.453 52.1021 438.453 68.1681ZM420.648 70.6018C420.648 63.3008 416.772 59.2827 409.506 59.2827H380.679V81.9176H409.746C416.406 81.9176 420.648 77.9027 420.648 70.5986V70.6018Z" fill="black"/>
<path d="M505.307 104.435C505.307 98.3512 501.431 95.7939 495.619 95.3091L475.997 93.4839C459.04 91.9026 450.197 85.2069 450.197 69.0205C450.197 52.8341 461.099 43.9487 476.722 43.9487H520.081V59.2827H477.933C471.878 59.2827 468.003 62.4484 468.003 68.5325C468.003 74.6167 471.998 77.5383 478.056 78.0263L498.041 79.7311C513.181 81.0684 523.112 88.0081 523.112 104.315C523.112 120.622 512.576 129.387 497.678 129.387H452.38V114.053H495.981C501.674 114.053 505.307 110.158 505.307 104.439V104.435Z" fill="black"/>
<path d="M574.831 42.4878C601.476 42.4878 618.313 59.647 618.313 86.544C618.313 113.441 600.751 130.844 574.106 130.844C547.461 130.844 530.624 113.441 530.624 86.544C530.624 59.647 548.187 42.4878 574.831 42.4878ZM600.023 86.6676C600.023 68.656 589.606 58.0689 574.466 58.0689C559.325 58.0689 548.909 68.656 548.909 86.6676C548.909 104.679 559.325 115.266 574.466 115.266C589.606 115.266 600.023 104.679 600.023 86.6676Z" fill="black"/>
<path d="M706 68.1681C706 77.6619 700.55 84.9629 693.281 88.1285V88.3725C700.913 89.469 704.789 94.9447 704.908 102.369L705.271 129.387H687.589L687.226 105.291C687.106 99.9356 683.956 96.6495 677.658 96.6495H648.225V129.387H630.543V43.9487H679.355C695.343 43.9487 706 52.1021 706 68.1681ZM688.194 70.6018C688.194 63.3008 684.318 59.2827 677.052 59.2827H648.225V81.9176H677.292C683.953 81.9176 688.194 77.9027 688.194 70.5986V70.6018Z" fill="black"/>
</g>
<defs>
<clipPath id="clip0_1169_121">
<rect width="706" height="169" fill="white"/>
</clipPath>
</defs>
</svg>
