<svg width="454" height="176" viewBox="0 0 454 176" fill="none" xmlns="http://www.w3.org/2000/svg">
<g clip-path="url(#clip0_1107_312)">
<path d="M390.056 97.1667C390.056 117.407 398.14 127.527 413.129 127.527C426.098 127.527 437.719 119.262 437.719 100.54V93.7933C437.719 75.0713 427.108 66.8067 414.813 66.8067C398.477 66.8067 390.056 77.6013 390.056 97.1667ZM437.719 139.333V124.153C432.329 135.285 422.224 141.02 409.256 141.02C386.856 141.02 375.572 121.961 375.572 97.1667C375.572 73.3847 387.361 53.3133 410.94 53.3133C423.234 53.3133 432.666 58.8793 437.719 69.8427V55H452.203V139.333H437.719Z" fill="white"/>
<path d="M340.002 89.577V139.334H325.855V55.0004H340.002V69.843C344.886 59.8917 353.307 52.8077 369.812 53.8197V67.9877C351.286 66.1324 340.002 71.6984 340.002 89.577Z" fill="white"/>
<path d="M286.811 32.7359C286.811 26.3266 291.021 22.6159 296.916 22.6159C302.81 22.6159 307.021 26.3266 307.021 32.7359C307.021 39.1453 302.81 42.856 296.916 42.856C291.021 42.856 286.811 39.1453 286.811 32.7359ZM289.505 139.333V55H303.989V139.333H289.505Z" fill="white"/>
<path d="M254.204 106.611V28.5187H269.361V105.599C269.361 126.008 260.435 140.007 239.551 140.007C231.635 140.007 225.572 138.658 221.362 137.14V122.466C225.909 124.321 231.467 125.333 237.025 125.333C249.825 125.333 254.204 117.575 254.204 106.611Z" fill="white"/>
<path d="M0 44C0 19.6995 19.6706 0 43.9355 0H131.806C156.071 0 175.742 19.6995 175.742 44V132C175.742 156.3 156.071 176 131.806 176H43.9355C19.6706 176 0 156.3 0 132V44Z" fill="#1868DB"/>
<mask id="mask0_1107_312" style="mask-type:luminance" maskUnits="userSpaceOnUse" x="30" y="38" width="111" height="112">
<path d="M140.709 38.097H30.1592V149.667H140.709V38.097Z" fill="white"/>
</mask>
<g mask="url(#mask0_1107_312)">
<path d="M65.7103 113.838H55.808C40.8732 113.838 30.1592 104.677 30.1592 91.2628H83.4046C86.1645 91.2628 87.9501 93.2256 87.9501 96.0067V149.665C74.6387 149.665 65.7103 138.868 65.7103 123.817V113.838ZM92.0083 87.173H82.1059C67.1712 87.173 56.4571 78.1754 56.4571 64.7609H109.703C112.462 64.7609 114.41 66.5601 114.41 69.3413V123C101.099 123 92.0083 112.202 92.0083 97.1518V87.173ZM118.469 60.6711H108.566C93.6317 60.6711 82.9176 51.5099 82.9176 38.095H136.163C138.923 38.095 140.709 40.0582 140.709 42.6758V96.3342C127.397 96.3342 118.469 85.5369 118.469 70.4864V60.6711Z" fill="white"/>
</g>
</g>
<defs>
<clipPath id="clip0_1107_312">
<rect width="454" height="176" fill="white"/>
</clipPath>
</defs>
</svg>
