<svg width="454" height="176" viewBox="0 0 454 176" fill="none" xmlns="http://www.w3.org/2000/svg">
<path d="M390.055 97.1668C390.055 117.407 398.139 127.527 413.129 127.527C426.097 127.527 437.718 119.262 437.718 100.54V93.7935C437.718 75.0715 427.108 66.8068 414.813 66.8068C398.476 66.8068 390.055 77.6015 390.055 97.1668ZM437.718 139.333V124.153C432.329 135.285 422.223 141.02 409.255 141.02C386.855 141.02 375.571 121.961 375.571 97.1668C375.571 73.3848 387.361 53.3135 410.939 53.3135C423.234 53.3135 432.665 58.8795 437.718 69.8428V55.0001H452.202V139.333H437.718Z" fill="black"/>
<path d="M340.002 89.5772V139.334H325.855V55.0005H340.002V69.8432C344.886 59.8918 353.307 52.8078 369.812 53.8198V67.9878C351.286 66.1325 340.002 71.6985 340.002 89.5772Z" fill="black"/>
<path d="M286.811 32.7357C286.811 26.3264 291.021 22.6157 296.916 22.6157C302.81 22.6157 307.021 26.3264 307.021 32.7357C307.021 39.1452 302.81 42.8558 296.916 42.8558C291.021 42.8558 286.811 39.1452 286.811 32.7357ZM289.505 139.333V54.9998H303.989V139.333H289.505Z" fill="black"/>
<path d="M254.204 106.611V28.5186H269.361V105.599C269.361 126.008 260.435 140.007 239.551 140.007C231.635 140.007 225.572 138.658 221.362 137.14V122.466C225.909 124.321 231.467 125.333 237.025 125.333C249.825 125.333 254.204 117.574 254.204 106.611Z" fill="black"/>
<path d="M0 44C0 19.6995 19.6706 0 43.9355 0H131.806C156.071 0 175.742 19.6995 175.742 44V132C175.742 156.3 156.071 176 131.806 176H43.9355C19.6706 176 0 156.3 0 132V44Z" fill="#1868DB"/>
<mask id="mask0_1169_160" style="mask-type:luminance" maskUnits="userSpaceOnUse" x="30" y="38" width="111" height="112">
<path d="M140.709 38.0972H30.1592V149.667H140.709V38.0972Z" fill="white"/>
</mask>
<g mask="url(#mask0_1169_160)">
<path d="M65.7103 113.839H55.808C40.8732 113.839 30.1592 104.677 30.1592 91.263H83.4046C86.1645 91.263 87.9501 93.2257 87.9501 96.0069V149.665C74.6387 149.665 65.7103 138.868 65.7103 123.817V113.839ZM92.0083 87.1732H82.1059C67.1712 87.1732 56.4571 78.1755 56.4571 64.761H109.703C112.462 64.761 114.41 66.5603 114.41 69.3414V123C101.099 123 92.0083 112.203 92.0083 97.152V87.1732ZM118.469 60.6712H108.566C93.6317 60.6712 82.9176 51.5101 82.9176 38.0952H136.163C138.923 38.0952 140.709 40.0583 140.709 42.676V96.3344C127.397 96.3344 118.469 85.5371 118.469 70.4865V60.6712Z" fill="white"/>
</g>
</svg>
