<svg width="259" height="115" viewBox="0 0 259 115" fill="none" xmlns="http://www.w3.org/2000/svg">
<g clip-path="url(#clip0_1169_181)">
<path d="M25.9447 85.6693C12.0188 85.6693 0 77.4657 0 60.8195H13.8051C13.8051 68.6679 19.5172 72.7108 25.9447 72.7108C32.2513 72.7108 37.8474 69.0253 37.8474 59.8704V0H51.7732V61.0564C51.7709 78.5355 39.5128 85.6693 25.9447 85.6693Z" fill="black"/>
<path d="M70.8688 17.5132C66.1089 17.5132 62.0625 13.5891 62.0625 8.71566C62.0625 3.96058 66.1089 0.0361328 70.8688 0.0361328C75.7492 0.0361328 79.5565 3.96058 79.5565 8.71566C79.5565 13.5891 75.7469 17.5132 70.8688 17.5132ZM64.3227 25.3782H77.4149V85.2844H64.3227V25.3782Z" fill="black"/>
<path d="M110.513 85.5193C99.087 85.5193 90.1621 79.2164 90.1621 65.7818V8.94629H103.254V25.4741H117.656V37.1261H103.254V63.6399C103.254 71.0126 106.467 73.628 113.252 73.628C115.751 73.628 118.369 73.2706 120.274 72.5582V84.2103C117.654 85.0435 114.56 85.5193 110.513 85.5193Z" fill="black"/>
<path d="M125.415 65.7818C125.415 79.2164 134.34 85.5193 145.766 85.5193C149.813 85.5193 152.907 85.0435 155.527 84.2103V72.5582C153.622 73.2706 151.004 73.628 148.505 73.628C141.72 73.628 138.507 71.0126 138.507 63.6399V37.1261H155.415V25.4741H138.507V8.94629H125.415V65.7818Z" fill="black"/>
<path d="M188.521 24.4248C204.112 24.4248 217.204 34.7682 217.204 53.9113C217.204 55.22 217.204 56.2898 217.086 58.1905H170.312C170.906 67.9399 178.762 74.3612 188.639 74.3612C196.969 74.3612 202.565 70.5553 205.659 65.3245L215.657 72.4583C210.301 80.9007 201.018 86.2499 188.521 86.2499C170.43 86.2499 157.459 73.4096 157.459 55.3362C157.457 37.8614 170.43 24.4248 188.521 24.4248ZM170.906 48.6806H203.992C202.563 40.1197 195.661 35.4829 188.043 35.4829C180.423 35.4829 172.69 39.8828 170.906 48.6806Z" fill="black"/>
<path d="M225.081 25.7015H238.173V36.2838C240.433 29.5075 247.1 25.1074 253.883 25.1074C255.548 25.1074 257.216 25.2258 259 25.5832V39.02C256.74 38.3073 254.835 37.9499 252.454 37.9499C244.956 37.9499 238.173 44.2507 238.173 56.1418V85.1525H225.081V25.7015Z" fill="black"/>
</g>
<defs>
<clipPath id="clip0_1169_181">
<rect width="259" height="115" fill="white"/>
</clipPath>
</defs>
</svg>
