<svg width="747" height="187" viewBox="0 0 747 187" fill="none" xmlns="http://www.w3.org/2000/svg">
<g clip-path="url(#clip0_1107_136)">
<path fill-rule="evenodd" clip-rule="evenodd" d="M24.1403 30.6143C23.1537 31.7001 23.2191 33.3658 24.2555 34.4039L152.356 162.676C153.393 163.714 155.056 163.779 156.14 162.791C174.924 145.677 186.714 121.001 186.714 93.5677C186.714 41.8917 144.878 0 93.2712 0C65.8748 0 41.232 11.806 24.1403 30.6143ZM8.12975 54.9582C7.65638 56.0033 7.89506 57.2287 8.70539 58.0401L128.751 178.247C129.562 179.058 130.785 179.297 131.829 178.823C134.602 177.564 137.303 176.172 139.924 174.657C141.481 173.757 141.72 171.629 140.448 170.355L16.586 46.3278C15.3143 45.0543 13.1891 45.2933 12.2899 46.8529C10.777 49.4768 9.38762 52.1812 8.12975 54.9582ZM0.846946 89.3785C0.284868 88.8157 -0.0141954 88.04 0.0387194 87.2458C0.286541 83.5262 0.751431 79.8662 1.42082 76.2782C1.82219 74.1268 4.44753 73.3803 5.99303 74.9277L111.886 180.963C113.432 182.51 112.686 185.139 110.538 185.541C106.954 186.211 103.299 186.677 99.5847 186.925C98.7916 186.978 98.0169 186.679 97.4548 186.116L0.846946 89.3785ZM7.34534 115.489C5.41603 113.557 2.30257 115.222 3.00914 117.861C11.6177 150.012 36.9024 175.331 69.0105 183.951C71.646 184.658 73.3084 181.541 71.3791 179.609L7.34534 115.489ZM376.492 51.4904C383.19 51.4904 388.619 46.0338 388.619 39.3027C388.619 32.5717 383.19 27.115 376.492 27.115C369.795 27.115 364.366 32.5717 364.366 39.3027C364.366 46.0338 369.795 51.4904 376.492 51.4904ZM272.619 157.781V27.1223H294.17V138.664H352.278V157.781H272.619ZM426.008 104.465V157.781H405.156V65.1798H425.747V81.0516L426.008 80.8764C428.102 75.9072 431.476 71.7566 436.13 68.4242C440.782 65.0336 446.715 63.3382 453.929 63.3382C460.327 63.3382 466.143 64.7706 471.379 67.6351C476.614 70.4412 480.801 74.5625 483.942 79.9993C487.083 85.4362 488.654 92.1007 488.654 99.9926V157.781H467.801V102.886C467.801 95.8713 465.939 90.5514 462.217 86.927C458.553 83.244 453.638 81.4024 447.472 81.4024C443.516 81.4024 439.91 82.2209 436.653 83.8577C433.396 85.4947 430.808 88.0084 428.888 91.3991C426.968 94.7897 426.008 99.145 426.008 104.465ZM614.822 156.202C619.592 158.248 625.06 159.271 631.224 159.271C636.285 159.271 640.618 158.628 644.224 157.342C647.832 155.997 650.797 154.214 653.124 151.993C655.509 149.771 657.399 147.345 658.796 144.715H659.145V157.781H679.126V94.0298C679.126 89.5283 678.252 85.407 676.507 81.6655C674.763 77.924 672.233 74.6796 668.916 71.932C665.659 69.1842 661.704 67.0797 657.05 65.6183C652.398 64.0982 647.161 63.3382 641.346 63.3382C633.377 63.3382 626.484 64.7121 620.667 67.4597C614.908 70.1489 610.402 73.7734 607.143 78.3334C603.886 82.8932 602.112 88.0377 601.82 93.7667H621.976C622.208 91.0776 623.14 88.6806 624.768 86.5761C626.397 84.4716 628.608 82.8346 631.4 81.6655C634.192 80.4379 637.419 79.8239 641.085 79.8239C644.749 79.8239 647.86 80.4379 650.42 81.6655C653.037 82.8932 655.044 84.5593 656.439 86.6638C657.836 88.7683 658.535 91.2236 658.535 94.0298V94.7314C658.535 96.8359 657.806 98.385 656.353 99.3789C654.956 100.373 652.572 101.103 649.199 101.571C645.882 102.039 641.346 102.594 635.587 103.237C630.875 103.763 626.339 104.553 621.976 105.605C617.614 106.657 613.716 108.206 610.284 110.252C606.911 112.299 604.235 115.017 602.257 118.408C600.28 121.798 599.292 126.154 599.292 131.473C599.292 137.612 600.687 142.756 603.479 146.907C606.271 150.999 610.052 154.098 614.822 156.202ZM648.588 140.681C645.214 142.493 641.055 143.399 636.111 143.399C631.108 143.399 627.123 142.347 624.158 140.243C621.19 138.079 619.707 135.127 619.707 131.386C619.707 128.463 620.522 126.095 622.15 124.283C623.838 122.471 626.047 121.038 628.782 119.986C631.516 118.934 634.481 118.203 637.68 117.794C640.007 117.443 642.276 117.092 644.487 116.741C646.696 116.332 648.762 115.952 650.682 115.602C652.602 115.192 654.23 114.783 655.567 114.374C656.964 113.965 657.982 113.526 658.62 113.059V123.406C658.62 127.03 657.778 130.363 656.09 133.403C654.462 136.384 651.961 138.81 648.588 140.681ZM697.319 157.781V65.1798H717.385V80.4379H717.648C719.335 75.1764 721.981 71.172 725.587 68.4242C729.251 65.6183 734.051 64.2152 739.984 64.2152C741.438 64.2152 742.748 64.2736 743.909 64.3906C745.132 64.449 746.15 64.5075 746.964 64.5659V83.4192C746.208 83.3023 744.869 83.1563 742.951 82.9809C741.031 82.8055 738.996 82.7178 736.843 82.7178C733.41 82.7178 730.271 83.5069 727.419 85.0854C724.569 86.6638 722.3 89.09 720.614 92.3636C718.986 95.5791 718.171 99.642 718.171 104.553V157.781H697.319ZM366.022 157.781V65.1798H386.875V157.781H366.022ZM523.337 153.659C530.026 157.81 537.967 159.885 547.157 159.885C554.253 159.885 560.709 158.599 566.527 156.027C572.402 153.396 577.287 149.801 581.185 145.241C585.082 140.623 587.612 135.303 588.776 129.281H569.145C568.271 132.029 566.846 134.455 564.868 136.559C562.95 138.606 560.536 140.213 557.628 141.382C554.718 142.552 551.346 143.136 547.506 143.136C542.329 143.136 537.879 141.967 534.157 139.629C530.493 137.29 527.701 134.046 525.781 129.895C524.039 126.075 523.087 121.749 522.926 116.917H589.997V111.305C589.997 104.173 588.95 97.6836 586.856 91.8376C584.763 85.933 581.795 80.847 577.956 76.5795C574.118 72.2534 569.494 68.9213 564.084 66.5828C558.732 64.2444 552.771 63.0753 546.197 63.0753C537.648 63.0753 530.086 65.1506 523.512 69.3013C516.939 73.4519 511.792 79.181 508.068 86.4884C504.346 93.796 502.484 102.156 502.484 111.568C502.484 120.921 504.288 129.252 507.895 136.559C511.501 143.808 516.649 149.508 523.337 153.659ZM567.225 92.3636C565.305 88.3884 562.571 85.3193 559.023 83.1563C555.475 80.9933 551.288 79.9116 546.458 79.9116C541.689 79.9116 537.53 80.9933 533.982 83.1563C530.493 85.3193 527.759 88.3884 525.781 92.3636C524.37 95.2427 523.477 98.5165 523.103 102.185H569.901C569.528 98.5165 568.635 95.2427 567.225 92.3636Z" fill="white"/>
</g>
<defs>
<clipPath id="clip0_1107_136">
<rect width="747" height="187" fill="white"/>
</clipPath>
</defs>
</svg>
