<svg width="747" height="187" viewBox="0 0 747 187" fill="none" xmlns="http://www.w3.org/2000/svg">
<g clip-path="url(#clip0_1169_135)">
<path fill-rule="evenodd" clip-rule="evenodd" d="M24.1408 30.6143C23.1542 31.7001 23.2196 33.3658 24.256 34.4039L152.356 162.676C153.393 163.714 155.057 163.779 156.141 162.791C174.924 145.677 186.714 121.001 186.714 93.5677C186.714 41.8917 144.879 0 93.2717 0C65.8753 0 41.2325 11.806 24.1408 30.6143ZM8.13024 54.9582C7.65686 56.0033 7.89555 57.2287 8.70588 58.0401L128.752 178.247C129.562 179.058 130.786 179.297 131.83 178.823C134.603 177.564 137.304 176.172 139.924 174.657C141.482 173.757 141.72 171.629 140.449 170.355L16.5865 46.3278C15.3148 45.0543 13.1896 45.2933 12.2904 46.8529C10.7775 49.4768 9.38811 52.1812 8.13024 54.9582ZM0.847435 89.3785C0.285357 88.8157 -0.0137071 88.04 0.0392077 87.2458C0.28703 83.5262 0.75192 79.8662 1.42131 76.2782C1.82268 74.1268 4.44801 73.3803 5.99352 74.9277L111.887 180.963C113.432 182.51 112.687 185.139 110.538 185.541C106.955 186.211 103.3 186.677 99.5852 186.925C98.7921 186.978 98.0174 186.679 97.4553 186.116L0.847435 89.3785ZM7.34583 115.489C5.41652 113.557 2.30306 115.222 3.00963 117.861C11.6182 150.012 36.9029 175.331 69.011 183.951C71.6464 184.658 73.3089 181.541 71.3796 179.609L7.34583 115.489ZM376.492 51.4904C383.191 51.4904 388.62 46.0338 388.62 39.3027C388.62 32.5717 383.191 27.115 376.492 27.115C369.795 27.115 364.366 32.5717 364.366 39.3027C364.366 46.0338 369.795 51.4904 376.492 51.4904ZM272.62 157.781V27.1223H294.171V138.664H352.278V157.781H272.62ZM426.009 104.465V157.781H405.156V65.1798H425.747V81.0516L426.009 80.8764C428.102 75.9072 431.477 71.7566 436.131 68.4242C440.783 65.0336 446.716 63.3382 453.93 63.3382C460.328 63.3382 466.143 64.7706 471.38 67.6351C476.614 70.4412 480.801 74.5625 483.942 79.9993C487.084 85.4362 488.654 92.1007 488.654 99.9926V157.781H467.802V102.886C467.802 95.8713 465.94 90.5514 462.218 86.9269C458.554 83.244 453.639 81.4024 447.472 81.4024C443.517 81.4024 439.911 82.2209 436.654 83.8577C433.397 85.4947 430.808 88.0084 428.889 91.3991C426.969 94.7897 426.009 99.145 426.009 104.465ZM614.822 156.202C619.592 158.248 625.06 159.271 631.225 159.271C636.286 159.271 640.618 158.628 644.224 157.342C647.832 155.997 650.798 154.214 653.125 151.993C655.51 149.771 657.4 147.345 658.797 144.715H659.146V157.781H679.126V94.0298C679.126 89.5283 678.252 85.407 676.508 81.6655C674.764 77.924 672.233 74.6796 668.916 71.932C665.659 69.1842 661.704 67.0797 657.05 65.6183C652.398 64.0982 647.162 63.3382 641.346 63.3382C633.378 63.3382 626.485 64.7121 620.668 67.4597C614.908 70.1489 610.402 73.7734 607.143 78.3334C603.886 82.8932 602.112 88.0377 601.821 93.7667H621.977C622.208 91.0776 623.14 88.6806 624.769 86.5761C626.397 84.4716 628.608 82.8346 631.4 81.6655C634.192 80.4379 637.419 79.8239 641.085 79.8239C644.749 79.8239 647.86 80.4379 650.421 81.6655C653.037 82.8932 655.045 84.5593 656.44 86.6638C657.837 88.7683 658.535 91.2236 658.535 94.0298V94.7314C658.535 96.8359 657.807 98.385 656.354 99.3789C654.957 100.373 652.572 101.103 649.199 101.571C645.883 102.039 641.347 102.594 635.587 103.237C630.875 103.763 626.339 104.553 621.977 105.605C617.614 106.657 613.717 108.206 610.284 110.252C606.912 112.299 604.236 115.017 602.258 118.408C600.28 121.798 599.292 126.154 599.292 131.473C599.292 137.612 600.687 142.756 603.479 146.907C606.271 150.999 610.053 154.098 614.822 156.202ZM648.589 140.681C645.214 142.493 641.055 143.399 636.112 143.399C631.109 143.399 627.124 142.347 624.158 140.243C621.191 138.079 619.708 135.127 619.708 131.386C619.708 128.463 620.522 126.095 622.151 124.283C623.839 122.471 626.048 121.038 628.782 119.986C631.516 118.934 634.482 118.203 637.681 117.794C640.008 117.443 642.277 117.092 644.488 116.741C646.697 116.332 648.762 115.952 650.682 115.602C652.602 115.192 654.23 114.783 655.568 114.374C656.964 113.965 657.982 113.526 658.621 113.059V123.406C658.621 127.03 657.779 130.363 656.09 133.403C654.462 136.384 651.961 138.81 648.589 140.681ZM697.319 157.781V65.1798H717.386V80.4379H717.649C719.335 75.1764 721.981 71.172 725.588 68.4242C729.252 65.6183 734.051 64.2152 739.984 64.2152C741.439 64.2152 742.748 64.2736 743.91 64.3906C745.133 64.449 746.151 64.5075 746.965 64.5659V83.4192C746.208 83.3023 744.87 83.1563 742.952 82.9809C741.032 82.8055 738.996 82.7178 736.843 82.7178C733.411 82.7178 730.271 83.5069 727.42 85.0854C724.57 86.6638 722.301 89.09 720.614 92.3636C718.986 95.5791 718.172 99.642 718.172 104.553V157.781H697.319ZM366.023 157.781V65.1798H386.875V157.781H366.023ZM523.337 153.659C530.027 157.81 537.967 159.885 547.157 159.885C554.254 159.885 560.71 158.599 566.527 156.027C572.402 153.396 577.288 149.801 581.185 145.241C585.083 140.622 587.613 135.303 588.776 129.281H569.145C568.271 132.029 566.846 134.455 564.869 136.559C562.951 138.606 560.536 140.213 557.628 141.382C554.719 142.552 551.346 143.136 547.507 143.136C542.33 143.136 537.88 141.967 534.158 139.629C530.494 137.29 527.702 134.046 525.782 129.895C524.04 126.075 523.087 121.749 522.927 116.917H589.998V111.305C589.998 104.173 588.95 97.6836 586.857 91.8376C584.763 85.933 581.796 80.847 577.956 76.5795C574.118 72.2534 569.495 68.9213 564.084 66.5828C558.732 64.2444 552.771 63.0753 546.197 63.0753C537.648 63.0753 530.086 65.1506 523.513 69.3013C516.939 73.4519 511.793 79.181 508.069 86.4884C504.347 93.796 502.485 102.156 502.485 111.568C502.485 120.921 504.289 129.252 507.895 136.559C511.501 143.808 516.65 149.508 523.337 153.659ZM567.225 92.3636C565.306 88.3884 562.572 85.3193 559.023 83.1563C555.475 80.9933 551.288 79.9117 546.459 79.9117C541.689 79.9117 537.53 80.9933 533.982 83.1563C530.494 85.3193 527.76 88.3884 525.782 92.3636C524.37 95.2427 523.477 98.5165 523.104 102.185H569.902C569.528 98.5165 568.635 95.2427 567.225 92.3636Z" fill="black"/>
</g>
<defs>
<clipPath id="clip0_1169_135">
<rect width="747" height="187" fill="white"/>
</clipPath>
</defs>
</svg>
