<svg width="566" height="141" viewBox="0 0 566 141" fill="none" xmlns="http://www.w3.org/2000/svg">
<g clip-path="url(#clip0_1106_41)">
<path d="M266.728 141C268.256 141 269.558 139.737 269.558 138.18V72.615C269.558 72.615 273.095 78.96 279.463 89.535L307.055 136.77C308.318 139.407 311.119 141 313.423 141H332.525V35.25H313.423C312.15 35.25 310.593 36.3033 310.593 38.07V104.34L297.858 81.78L272.388 38.775C271.148 36.5833 268.481 35.25 266.02 35.25H247.625V141H266.728Z" fill="white"/>
<path d="M513.645 64.86H522.843C525.187 64.86 527.088 62.9662 527.088 60.63V42.3H546.898V64.86H566V81.78H546.898V112.095C546.898 119.498 550.475 122.67 556.803 122.67H566V141H553.973C537.663 141 527.088 130.475 527.088 112.8V81.78H513.645V64.86Z" fill="white"/>
<path d="M418.132 64.86V108.57C418.132 118.443 414.412 126.765 408.935 132.54C403.457 138.315 395.893 141 385.587 141C375.282 141 367.01 138.315 361.532 132.54C356.148 126.765 352.335 118.443 352.335 108.57V64.86H363.655C366.069 64.86 368.444 65.2985 370.022 66.975C371.601 68.5584 372.145 69.4885 372.145 71.91V108.57C372.145 114.252 372.468 117.761 374.975 120.555C377.482 123.256 380.574 124.08 385.587 124.08C390.693 124.08 392.986 123.256 395.492 120.555C397.999 117.761 398.322 114.252 398.322 108.57V71.91C398.322 69.4885 398.867 67.9465 400.445 66.27C401.832 64.7971 403.295 64.8318 405.397 64.86C405.688 64.8639 406.52 64.86 406.812 64.86H418.132Z" fill="white"/>
<path d="M478.27 101.52L502.325 64.86H483.93C481.612 64.86 479.552 65.6889 478.27 67.68L466.95 84.6L456.338 68.385C455.056 66.3939 452.289 64.86 449.97 64.86H432.283L456.338 100.815L430.16 141H448.555C450.855 141 452.929 138.735 454.215 136.77L466.95 117.735L480.393 137.475C481.679 139.44 483.753 141 486.053 141H504.448L478.27 101.52Z" fill="white"/>
<path d="M118.86 141H197.392C199.898 141 202.297 140.123 204.467 138.885C206.638 137.647 208.875 136.094 210.127 133.95C211.38 131.806 212.251 129.375 212.25 126.899C212.249 124.424 211.382 121.993 210.127 119.851L157.065 28.905C155.813 26.7618 154.282 25.2074 152.112 23.97C149.943 22.7326 146.836 21.855 144.33 21.855C141.824 21.855 139.425 22.7326 137.255 23.97C135.085 25.2074 133.555 26.7618 132.302 28.905L118.86 52.17L91.975 7.04834C90.7213 4.90528 89.1931 2.64721 87.0225 1.41C84.8519 0.172786 82.4535 0 79.9475 0C77.4415 0 75.0431 0.172786 72.8725 1.41C70.7021 2.64721 68.466 4.90528 67.2125 7.04834L1.415 119.851C0.160592 121.993 0.00109579 124.424 5.38269e-06 126.899C-0.00108502 129.375 0.16248 131.806 1.415 133.95C2.66753 136.093 4.90471 137.647 7.075 138.885C9.24526 140.123 11.6439 141 14.15 141H63.675C83.2989 141 97.5819 132.228 107.54 115.62L131.595 74.025L144.33 52.17L183.242 118.44H131.595L118.86 141ZM62.9675 118.44H28.3L79.9475 29.61L106.125 74.025L88.7849 104.146C82.1719 114.922 74.6328 118.44 62.9675 118.44Z" fill="#00DC82"/>
</g>
<defs>
<clipPath id="clip0_1106_41">
<rect width="566" height="141" fill="white"/>
</clipPath>
</defs>
</svg>
