<svg width="800" height="140" viewBox="0 0 800 140" fill="none" xmlns="http://www.w3.org/2000/svg">
<g clip-path="url(#clip0_1106_23)">
<path d="M55.3829 75.225C53.5089 78.973 48.1609 78.973 46.2869 75.225L41.8049 66.262C41.4518 65.5559 41.2681 64.7774 41.2681 63.988C41.2681 63.1986 41.4518 62.42 41.8049 61.714L46.2869 52.75C48.1609 49.002 53.5089 49.002 55.3829 52.75L59.8649 61.714C60.218 62.42 60.4018 63.1986 60.4018 63.988C60.4018 64.7774 60.218 65.5559 59.8649 66.262L55.3829 75.225ZM55.3829 126.061C53.5089 129.808 48.1609 129.808 46.2869 126.061L41.8049 117.097C41.4518 116.391 41.2681 115.612 41.2681 114.823C41.2681 114.034 41.4518 113.255 41.8049 112.549L46.2869 103.585C48.1609 99.837 53.5089 99.837 55.3829 103.585L59.8649 112.549C60.218 113.255 60.4018 114.034 60.4018 114.823C60.4018 115.612 60.218 116.391 59.8649 117.097L55.3829 126.061Z" fill="#1D4AFF"/>
<path d="M0 106.765C0 102.235 5.477 99.965 8.68 103.169L31.987 126.476C35.191 129.68 32.922 135.156 28.392 135.156H5.085C3.73672 135.156 2.44363 134.621 1.49007 133.667C0.536504 132.714 0.000530297 131.421 0 130.073L0 106.765ZM0 82.215C0 83.565 0.536 84.858 1.49 85.811L49.346 133.667C50.2994 134.621 51.5925 135.157 52.941 135.157H79.227C83.757 135.157 86.026 129.68 82.822 126.476L8.681 52.334C5.477 49.131 0 51.4 0 55.93V82.216V82.215ZM0 31.381C0 32.729 0.536 34.023 1.49 34.976L100.18 133.667C101.134 134.621 102.427 135.157 103.776 135.157H130.061C134.591 135.157 136.861 129.68 133.657 126.476L8.681 1.5C5.477 -1.704 0 0.565004 0 5.095V31.381ZM50.835 31.381C50.835 32.729 51.371 34.023 52.325 34.976L143.825 126.476C147.028 129.68 152.505 127.411 152.505 122.88V96.595C152.505 95.2462 151.969 93.9527 151.015 92.999L59.515 1.499C56.312 -1.704 50.835 0.565004 50.835 5.095V31.381ZM110.35 1.5C107.147 -1.704 101.67 0.565004 101.67 5.095V31.381C101.67 32.729 102.206 34.023 103.16 34.976L143.824 75.641C147.028 78.845 152.504 76.576 152.504 72.045V45.76C152.504 44.4113 151.968 43.1178 151.015 42.164L110.35 1.5Z" fill="#F9BD2B"/>
<path d="M216.24 107.388L168.376 59.525C165.172 56.321 159.695 58.59 159.695 63.12V130.072C159.695 131.421 160.231 132.714 161.184 133.668C162.138 134.621 163.431 135.157 164.78 135.157H238.922C240.27 135.157 241.564 134.621 242.517 133.668C243.471 132.714 244.007 131.421 244.007 130.072V123.975C244.007 121.166 241.721 118.923 238.937 118.561C230.345 117.442 222.365 113.514 216.239 107.388H216.24ZM184.095 118.89C181.938 118.889 179.87 118.032 178.345 116.506C176.82 114.981 175.963 112.913 175.962 110.756C175.963 108.599 176.82 106.531 178.345 105.006C179.87 103.48 181.938 102.623 184.095 102.622C186.252 102.623 188.32 103.48 189.846 105.005C191.371 106.53 192.228 108.599 192.229 110.756C192.228 112.913 191.371 114.981 189.846 116.507C188.32 118.032 186.252 118.889 184.095 118.89Z" fill="black"/>
<path d="M0 130.072C0 131.421 0.53574 132.714 1.48936 133.668C2.44298 134.621 3.73637 135.157 5.085 135.157H28.392C32.922 135.157 35.191 129.68 31.987 126.476L8.681 103.169C5.477 99.9659 0 102.235 0 106.765V130.072ZM50.835 43.6539L8.68 1.49994C5.477 -1.70406 0 0.564939 0 5.09494V31.3809C0 32.7289 0.536 34.0229 1.49 34.9759L50.835 84.3219V43.6539ZM8.68 52.3339C5.477 49.1309 0 51.3999 0 55.9299V82.2159C0 83.5639 0.536 84.8579 1.49 85.8109L50.835 135.157V94.4889L8.68 52.3339Z" fill="#1D4AFF"/>
<path d="M101.67 45.7601C101.67 45.0922 101.538 44.4308 101.283 43.8138C101.027 43.1968 100.652 42.6362 100.18 42.1641L59.516 1.50006C56.312 -1.70394 50.835 0.565061 50.835 5.09506V31.3811C50.835 32.7291 51.371 34.0231 52.325 34.9761L101.67 84.3221V45.7601ZM50.835 135.157H79.227C83.757 135.157 86.026 129.68 82.822 126.476L50.835 94.4891V135.157ZM50.835 43.6541V82.2161C50.835 83.5641 51.371 84.8581 52.325 85.8111L101.67 135.157V96.5951C101.67 95.9272 101.538 95.2658 101.283 94.6488C101.027 94.0318 100.652 93.4712 100.18 92.9991L50.835 43.6541Z" fill="#F54E00"/>
<path d="M303.32 114.86H324.208V80.22H341.66C360.83 80.22 373.126 68.85 373.126 51.266C373.126 33.682 360.831 22.312 341.66 22.312H303.32V114.859V114.86ZM324.208 62.372V40.16H339.545C347.477 40.16 352.237 44.39 352.237 51.265C352.237 58.141 347.477 62.371 339.545 62.371H324.208V62.372ZM410.918 115.917C431.278 115.917 446.085 101.374 446.085 81.542C446.085 61.711 431.278 47.168 410.918 47.168C390.293 47.168 375.75 61.711 375.75 81.542C375.75 101.374 390.293 115.917 410.918 115.917ZM395.052 81.542C395.052 70.965 401.398 63.694 410.918 63.694C420.304 63.694 426.651 70.965 426.651 81.542C426.651 92.119 420.304 99.391 410.918 99.391C401.398 99.391 395.052 92.119 395.052 81.542ZM479.514 115.917C495.115 115.917 505.692 106.133 505.692 94.631C505.692 67.661 469.863 76.386 469.863 65.809C469.863 62.901 472.903 61.05 477.267 61.05C481.762 61.05 487.183 63.826 488.901 69.908L504.502 63.429C501.462 53.779 490.223 47.168 476.606 47.168C461.93 47.168 452.808 55.893 452.808 66.338C452.808 91.59 488.108 84.583 488.108 95.028C488.108 98.73 484.671 101.242 479.514 101.242C472.111 101.242 466.954 96.086 465.368 89.872L449.767 95.953C453.205 106.001 463.253 115.917 479.514 115.917ZM555.944 114.199L554.623 97.408C552.375 98.598 549.466 98.994 547.087 98.994C542.327 98.994 539.154 95.557 539.154 89.607V64.355H555.284V48.225H539.154V28.923H519.719V48.225H509.142V64.355H519.719V92.119C519.719 108.249 530.693 115.917 545.103 115.917C549.07 115.917 552.772 115.257 555.945 114.199H555.944ZM623.708 22.312V58.273H586.953V22.313H566.063V114.859H586.953V76.122H623.708V114.859H644.729V22.312H623.708ZM691.094 115.917C711.454 115.917 726.262 101.374 726.262 81.542C726.262 61.711 711.455 47.168 691.094 47.168C670.469 47.168 655.926 61.711 655.926 81.542C655.926 101.374 670.469 115.917 691.094 115.917ZM675.23 81.542C675.23 70.965 681.576 63.694 691.095 63.694C700.482 63.694 706.828 70.965 706.828 81.542C706.828 92.119 700.482 99.391 691.095 99.391C681.576 99.391 675.23 92.119 675.23 81.542ZM763.775 112.744C771.047 112.744 777.525 110.232 780.963 105.869V112.215C780.963 119.619 775.013 124.775 765.891 124.775C759.412 124.775 753.727 121.602 752.801 116.181L735.086 118.958C737.466 131.518 750.29 139.98 765.891 139.98C786.383 139.98 800.001 127.948 800.001 110.1V48.225H780.831V53.91C777.261 49.812 771.179 47.168 763.379 47.168C744.869 47.168 733.235 59.86 733.235 79.956C733.235 100.052 744.869 112.744 763.775 112.744ZM752.14 79.956C752.14 70.04 757.957 63.694 766.947 63.694C776.07 63.694 781.887 70.04 781.887 79.956C781.887 89.872 776.07 96.218 766.947 96.218C757.957 96.218 752.14 89.872 752.14 79.956Z" fill="white"/>
</g>
<defs>
<clipPath id="clip0_1106_23">
<rect width="800" height="140" fill="white"/>
</clipPath>
</defs>
</svg>
