<svg width="214" height="213" viewBox="0 0 214 213" fill="none" xmlns="http://www.w3.org/2000/svg">
<g clip-path="url(#clip0_1107_25)">
<path d="M46.5966 7.00926L106.784 0L166.972 7.00926L213.568 75.9148L106.784 212.894L0 75.9148L46.5966 7.00926Z" fill="#FDB300"/>
<path d="M43.253 75.9148L106.784 212.894L0 75.9148H43.253Z" fill="#EA6C00"/>
<path d="M170.315 75.9148L106.784 212.894L213.568 75.9148H170.315Z" fill="#EA6C00"/>
<path d="M43.2529 75.9148H170.316L106.784 212.894L43.2529 75.9148Z" fill="#FDAD00"/>
<path d="M106.784 0L46.5965 7.00926L43.2529 75.9148L106.784 0Z" fill="#FDD231"/>
<path d="M106.784 0L166.971 7.00926L170.315 75.9148L106.784 0Z" fill="#FDD231"/>
<path d="M213.569 75.9148L166.972 7.00926L170.316 75.9148H213.569ZM0 75.9148L46.5966 7.00926L43.253 75.9148H0Z" fill="#FDAD00"/>
<path d="M106.784 0L43.2529 75.9148H170.316L106.784 0Z" fill="#FEEEB7"/>
</g>
<defs>
<clipPath id="clip0_1107_25">
<rect width="214" height="213" fill="white"/>
</clipPath>
</defs>
</svg>
