<svg width="1129" height="143" viewBox="0 0 1129 143" fill="none" xmlns="http://www.w3.org/2000/svg">
<g clip-path="url(#clip0_1169_178)">
<path fill-rule="evenodd" clip-rule="evenodd" d="M116.347 0C85.3214 0 65.9302 15.6 58.1737 46.8C69.8084 31.2 83.3823 25.35 98.8952 29.25C107.746 31.473 114.072 37.934 121.074 45.0797C132.481 56.7233 145.684 70.2 174.521 70.2C205.547 70.2 224.938 54.6 232.695 23.4C221.06 39 207.486 44.85 191.973 40.95C183.122 38.727 176.796 32.266 169.794 25.1203C158.387 13.4767 145.184 0 116.347 0ZM58.1737 70.2C27.1477 70.2 7.75649 85.8 0 117C11.6347 101.4 25.2086 95.55 40.7216 99.45C49.5726 101.677 55.8984 108.134 62.9008 115.28C74.3072 126.923 87.5104 140.4 116.347 140.4C147.373 140.4 166.764 124.8 174.521 93.6C162.886 109.2 149.312 115.05 133.799 111.15C124.948 108.927 118.623 102.466 111.62 95.3203C100.214 83.6767 87.0106 70.2 58.1737 70.2Z" fill="#38BDF8"/>
<path fill-rule="evenodd" clip-rule="evenodd" d="M349.025 59.1585H328.72V98.6785C328.72 109.217 335.598 109.053 349.025 108.394V124.367C321.843 127.66 311.036 120.085 311.036 98.6785V59.1585H295.971V42.033H311.036V19.9157L328.72 14.6463V42.033H349.025V59.1585ZM426.426 42.033H444.111V124.367H426.426V112.511C420.204 121.238 410.543 126.507 397.77 126.507C375.501 126.507 356.997 107.571 356.997 83.1998C356.997 58.6645 375.501 39.8923 397.77 39.8923C410.543 39.8923 420.204 45.1618 426.426 53.7245V42.033ZM400.554 109.547C415.291 109.547 426.426 98.5138 426.426 83.1998C426.426 67.8858 415.291 56.8532 400.554 56.8532C385.817 56.8532 374.682 67.8858 374.682 83.1998C374.682 98.5138 385.817 109.547 400.554 109.547ZM473.586 29.683C467.363 29.683 462.287 24.4137 462.287 18.321C462.291 15.3094 463.485 12.4227 465.601 10.2932C467.721 8.16362 470.591 6.96472 473.586 6.959C476.581 6.96472 479.45 8.16362 481.571 10.2932C483.686 12.4227 484.88 15.3094 484.884 18.321C484.884 24.4137 479.808 29.683 473.586 29.683ZM464.743 124.367V42.033H482.428V124.367H464.743ZM502.897 124.367V4.15967H520.581V124.367H502.897ZM635.369 42.033H654.036L628.328 124.367H610.97L593.941 68.8738L576.747 124.367H559.39L533.681 42.033H552.348L568.232 98.8432L585.426 42.033H602.292L619.321 98.8432L635.369 42.033ZM675.978 29.683C669.756 29.683 664.68 24.4137 664.68 18.321C664.684 15.3094 665.878 12.4227 667.993 10.2932C670.114 8.16362 672.983 6.96472 675.978 6.959C678.973 6.96472 681.843 8.16362 683.963 10.2932C686.079 12.4227 687.273 15.3094 687.277 18.321C687.277 24.4137 682.201 29.683 675.978 29.683ZM667.136 124.367V42.033H684.821V124.367H667.136ZM748.355 39.8923C766.695 39.8923 779.795 52.4072 779.795 73.8138V124.367H762.11V75.6252C762.11 63.1105 754.905 56.5238 743.77 56.5238C732.144 56.5238 722.974 63.4398 722.974 80.2358V124.367H705.289V42.033H722.974V52.5718C728.378 44.0092 737.22 39.8923 748.355 39.8923ZM863.634 9.09966H881.318V124.367H863.634V112.511C857.411 121.238 847.75 126.507 834.978 126.507C812.708 126.507 794.204 107.571 794.204 83.1998C794.204 58.6645 812.708 39.8923 834.978 39.8923C847.75 39.8923 857.411 45.1618 863.634 53.7245V9.09966ZM837.761 109.547C852.499 109.547 863.634 98.5138 863.634 83.1998C863.634 67.8858 852.499 56.8532 837.761 56.8532C823.024 56.8532 811.889 67.8858 811.889 83.1998C811.889 98.5138 823.024 109.547 837.761 109.547ZM940.595 126.507C915.869 126.507 897.366 107.571 897.366 83.1998C897.366 58.6645 915.869 39.8923 940.595 39.8923C956.643 39.8923 970.561 48.2905 977.111 61.1345L961.882 70.0265C958.28 62.2872 950.256 57.3472 940.431 57.3472C926.022 57.3472 915.051 68.3798 915.051 83.1998C915.051 98.0198 926.022 109.053 940.431 109.053C950.256 109.053 958.28 103.948 962.21 96.3732L977.439 105.101C970.561 118.109 956.643 126.507 940.595 126.507ZM1006.59 64.7572C1006.59 79.7418 1050.63 70.6852 1050.63 101.149C1050.63 117.615 1036.39 126.507 1018.7 126.507C1002.33 126.507 990.538 119.097 985.298 107.241L1000.53 98.3492C1003.15 105.759 1009.7 110.205 1018.7 110.205C1026.56 110.205 1032.62 107.571 1032.62 100.984C1032.62 86.3285 988.573 94.5618 988.573 65.0865C988.573 49.6078 1001.84 39.8923 1018.54 39.8923C1031.97 39.8923 1043.1 46.1498 1048.83 57.0178L1033.93 65.4158C1030.98 58.9938 1025.25 56.0298 1018.54 56.0298C1012.15 56.0298 1006.59 58.8292 1006.59 64.7572ZM1082.07 64.7572C1082.07 79.7418 1126.12 70.6852 1126.12 101.149C1126.12 117.615 1111.88 126.507 1094.19 126.507C1077.82 126.507 1066.03 119.097 1060.79 107.241L1076.01 98.3492C1078.63 105.759 1085.18 110.205 1094.19 110.205C1102.05 110.205 1108.11 107.571 1108.11 100.984C1108.11 86.3285 1064.06 94.5618 1064.06 65.0865C1064.06 49.6078 1077.32 39.8923 1094.03 39.8923C1107.45 39.8923 1118.59 46.1498 1124.32 57.0178L1109.42 65.4158C1106.47 58.9938 1100.74 56.0298 1094.03 56.0298C1087.64 56.0298 1082.07 58.8292 1082.07 64.7572Z" fill="black"/>
</g>
<defs>
<clipPath id="clip0_1169_178">
<rect width="1129" height="143" fill="white"/>
</clipPath>
</defs>
</svg>
