<svg width="734" height="123" viewBox="0 0 734 123" fill="none" xmlns="http://www.w3.org/2000/svg">
<g clip-path="url(#clip0_1169_32)">
<path fill-rule="evenodd" clip-rule="evenodd" d="M196.145 0.464844L133.557 122.804H74.7701L100.963 72.1011H99.788C78.1792 100.149 45.9383 118.613 0 122.804V72.8031C0 72.8031 29.3878 71.0675 46.6641 52.9057H0V0.46581H52.4454V43.5968L53.6225 43.592L75.0535 0.46581H114.717V43.3234L115.894 43.3215L138.129 0.464844H196.145Z" fill="#146EF5"/>
<path d="M537.438 109.3H554.328V12.3589H537.438V109.3Z" fill="black"/>
<path fill-rule="evenodd" clip-rule="evenodd" d="M444.323 108.31C447.994 109.836 451.726 110.599 455.521 110.599C461.791 110.599 467.4 109.073 472.35 106.021C477.3 102.969 481.135 98.7623 483.858 93.4012C486.581 87.9981 487.941 81.8739 487.941 75.0274C487.941 68.1808 486.539 62.0565 483.734 56.6537C480.929 51.2509 477.032 47.0648 472.041 44.0953C467.05 41.0846 461.379 39.5998 455.026 39.6411C450.984 39.6411 447.107 40.4247 443.395 41.9919C439.682 43.5591 436.589 45.7862 434.114 48.6732C433.923 48.8931 433.737 49.1151 433.557 49.3392V12.4209H416.604V109.3H433.433L433.4 100.25C433.835 100.783 434.3 101.305 434.795 101.814C437.476 104.578 440.652 106.743 444.323 108.31ZM461.646 92.6585C458.883 94.3492 455.727 95.1953 452.18 95.1953C448.674 95.1953 445.457 94.3288 442.528 92.5966C439.6 90.823 437.269 88.4106 435.537 85.3587C433.846 82.3068 433.001 78.8424 433.001 74.9655C432.959 71.0886 433.784 67.6242 435.475 64.5723C437.208 61.4791 439.538 59.087 442.466 57.3961C445.395 55.6639 448.633 54.8184 452.18 54.8596C455.727 54.8184 458.883 55.6432 461.646 57.3342C464.451 58.9839 466.596 61.3553 468.081 64.4485C469.607 67.5005 470.37 71.0064 470.37 74.9655C470.37 78.9246 469.607 82.4305 468.081 85.4824C466.596 88.5343 464.451 90.9263 461.646 92.6585Z" fill="black"/>
<path d="M220.615 18.2358H239.919L257.187 81.2919L275.556 18.2358H291.643L311.565 80.0266L328.146 18.2358H345.841L319.732 109.3H303.088L282.831 48.9352L264.234 109.3H247.405L220.615 18.2358Z" fill="black"/>
<path fill-rule="evenodd" clip-rule="evenodd" d="M374.348 110.908C367.624 110.949 361.561 109.464 356.157 106.454C350.796 103.402 346.568 99.1745 343.474 93.772C340.422 88.3689 338.896 82.2032 338.896 75.2744C338.896 68.5523 340.463 62.4686 343.598 57.0246C346.732 51.5806 350.981 47.3326 356.343 44.2806C361.705 41.2287 367.686 39.7026 374.286 39.7026C381.71 39.7026 388.207 41.3524 393.775 44.6518C399.385 47.9512 403.571 52.6322 406.334 58.6949C409.139 64.7164 410.15 71.6245 409.366 79.4191H356.369C356.518 82.5247 357.292 85.3503 358.694 87.8945C360.262 90.6991 362.448 92.8852 365.252 94.4522C368.057 96.0193 371.192 96.8028 374.657 96.8028C377.297 96.7621 379.751 96.3081 382.019 95.4424C384.288 94.5352 386.206 93.3181 387.774 91.7925C389.382 90.2662 390.516 88.534 391.176 86.5959H408.872C407.799 91.3385 405.654 95.566 402.437 99.2778C399.219 102.948 395.177 105.814 390.31 107.877C385.443 109.939 380.122 110.949 374.348 110.908ZM358.756 62.4067C357.767 64.1303 357.083 65.9862 356.702 67.9746H391.832C391.577 65.4626 390.802 63.1736 389.505 61.1076C388.021 58.6743 386 56.7977 383.443 55.478C380.885 54.117 377.998 53.4365 374.781 53.4365C371.357 53.4365 368.243 54.2201 365.438 55.7873C362.634 57.3546 360.406 59.561 358.756 62.4067Z" fill="black"/>
<path d="M500.377 41.1256C500.377 35.599 501.636 30.6912 504.152 26.402C506.668 22.0715 510.195 18.7102 514.732 16.3182C519.31 13.8848 524.652 12.6269 530.756 12.5444V27.5773C527.91 27.6186 525.477 28.2167 523.455 29.3714C521.476 30.485 519.949 32.1141 518.877 34.2587C517.889 36.2331 517.356 38.522 517.278 41.1256H530.385V55.4162H517.268V109.3H500.377V55.4162H489.488V41.1256H500.377Z" fill="black"/>
<path fill-rule="evenodd" clip-rule="evenodd" d="M597.266 110.785C590.378 110.785 584.211 109.279 578.766 106.269C573.363 103.217 569.115 99.0097 566.021 93.6487C562.969 88.2455 561.442 82.1213 561.442 75.2748C561.442 68.3874 562.969 62.2421 566.021 56.8393C569.115 51.3953 573.363 47.1679 578.766 44.1572C584.211 41.1465 590.378 39.6411 597.266 39.6411C604.195 39.6411 610.383 41.1465 615.827 44.1572C621.313 47.1679 625.582 51.3746 628.634 56.7775C631.686 62.1802 633.233 68.346 633.274 75.2748C633.233 82.1213 631.686 88.2455 628.634 93.6487C625.623 99.0097 621.375 103.217 615.889 106.269C610.403 109.279 604.195 110.785 597.266 110.785ZM597.266 95.2572C600.896 95.2572 604.113 94.4322 606.918 92.7822C609.723 91.0915 611.888 88.7402 613.414 85.7298C614.94 82.6779 615.703 79.1931 615.703 75.2748C615.703 71.3157 614.94 67.8099 613.414 64.7579C611.888 61.706 609.723 59.3552 606.918 57.7054C604.113 56.0145 600.896 55.169 597.266 55.169C593.677 55.169 590.481 56.0145 587.676 57.7054C584.912 59.3552 582.767 61.706 581.241 64.7579C579.715 67.8099 578.973 71.3157 579.014 75.2748C579.014 79.1931 579.777 82.6779 581.303 85.7298C582.87 88.7402 585.015 91.0915 587.738 92.7822C590.501 94.4322 593.677 95.2572 597.266 95.2572Z" fill="black"/>
<path d="M651.526 41.126H632.718L653.073 109.3H669.531L682.919 65.7574L697.374 109.3H713.583L734 41.126H716.988L705.408 83.56L692.61 41.126H676.151L663.414 84.4951L651.526 41.126Z" fill="black"/>
</g>
<defs>
<clipPath id="clip0_1169_32">
<rect width="734" height="123" fill="white"/>
</clipPath>
</defs>
</svg>
