<svg width="734" height="123" viewBox="0 0 734 123" fill="none" xmlns="http://www.w3.org/2000/svg">
<g clip-path="url(#clip0_1106_31)">
<path fill-rule="evenodd" clip-rule="evenodd" d="M196.145 0.464844L133.557 122.804H74.7701L100.963 72.1011H99.788C78.1792 100.149 45.9383 118.613 0 122.804V72.8031C0 72.8031 29.3878 71.0675 46.6641 52.9057H0V0.46581H52.4454V43.5968L53.6225 43.592L75.0535 0.46581H114.717V43.3234L115.894 43.3215L138.129 0.464844H196.145Z" fill="#146EF5"/>
<path d="M537.438 109.3H554.328V12.359H537.438V109.3Z" fill="white"/>
<path fill-rule="evenodd" clip-rule="evenodd" d="M444.323 108.31C447.994 109.836 451.727 110.599 455.522 110.599C461.792 110.599 467.401 109.073 472.35 106.021C477.3 102.969 481.136 98.7622 483.858 93.4011C486.581 87.998 487.942 81.8738 487.942 75.0272C487.942 68.1807 486.54 62.0564 483.735 56.6535C480.93 51.2508 477.032 47.0646 472.041 44.0952C467.051 41.0845 461.379 39.5997 455.026 39.641C450.985 39.641 447.107 40.4245 443.395 41.9918C439.682 43.559 436.589 45.7861 434.114 48.6731C433.923 48.8929 433.738 49.1149 433.558 49.3391V12.4208H416.605V109.3H433.434L433.4 100.25C433.836 100.783 434.301 101.304 434.795 101.814C437.476 104.578 440.652 106.743 444.323 108.31ZM461.647 92.6584C458.883 94.3491 455.728 95.1952 452.181 95.1952C448.675 95.1952 445.457 94.3287 442.529 92.5965C439.6 90.8229 437.27 88.4105 435.537 85.3586C433.847 82.3067 433.001 78.8423 433.001 74.9654C432.96 71.0885 433.785 67.6241 435.476 64.5722C437.208 61.479 439.538 59.0869 442.467 57.396C445.395 55.6638 448.633 54.8183 452.181 54.8595C455.728 54.8183 458.883 55.6431 461.647 57.3341C464.452 58.9838 466.596 61.3552 468.081 64.4484C469.607 67.5004 470.371 71.0063 470.371 74.9654C470.371 78.9245 469.607 82.4303 468.081 85.4822C466.596 88.5341 464.452 90.9262 461.647 92.6584Z" fill="white"/>
<path d="M220.615 18.2361H239.919L257.187 81.2921L275.556 18.2361H291.643L311.565 80.0268L328.146 18.2361H345.841L319.732 109.3H303.088L282.831 48.9355L264.234 109.3H247.405L220.615 18.2361Z" fill="white"/>
<path fill-rule="evenodd" clip-rule="evenodd" d="M374.348 110.909C367.624 110.949 361.561 109.465 356.157 106.454C350.796 103.402 346.568 99.1747 343.474 93.7723C340.422 88.3691 338.896 82.2035 338.896 75.2747C338.896 68.5525 340.463 62.4689 343.598 57.0248C346.732 51.5808 350.981 47.3328 356.343 44.2809C361.705 41.2289 367.686 39.7029 374.286 39.7029C381.71 39.7029 388.207 41.3526 393.775 44.652C399.385 47.9514 403.571 52.6325 406.334 58.6952C409.139 64.7166 410.15 71.6248 409.366 79.4193H356.369C356.518 82.5249 357.292 85.3505 358.694 87.8948C360.262 90.6993 362.448 92.8854 365.252 94.4525C368.057 96.0196 371.192 96.8031 374.657 96.8031C377.297 96.7623 379.751 96.3084 382.019 95.4426C384.288 94.5354 386.206 93.3183 387.774 91.7927C389.382 90.2664 390.516 88.5342 391.176 86.5961H408.872C407.799 91.3388 405.654 95.5663 402.437 99.278C399.219 102.948 395.177 105.815 390.31 107.877C385.443 109.939 380.122 110.949 374.348 110.909ZM358.756 62.407C357.767 64.1305 357.083 65.9865 356.702 67.9749H391.832C391.577 65.4628 390.802 63.1739 389.505 61.1079C388.021 58.6746 386 56.798 383.443 55.4783C380.885 54.1173 377.998 53.4367 374.781 53.4367C371.357 53.4367 368.243 54.2203 365.438 55.7875C362.634 57.3548 360.406 59.5613 358.756 62.407Z" fill="white"/>
<path d="M500.377 41.1257C500.377 35.5992 501.636 30.6913 504.152 26.4021C506.668 22.0716 510.195 18.7103 514.732 16.3183C519.31 13.8849 524.652 12.6271 530.756 12.5446V27.5775C527.91 27.6187 525.477 28.2168 523.455 29.3716C521.476 30.4851 519.949 32.1142 518.877 34.2588C517.889 36.2332 517.356 38.5222 517.278 41.1257H530.385V55.4163H517.268V109.3H500.377V55.4163H489.488V41.1257H500.377Z" fill="white"/>
<path fill-rule="evenodd" clip-rule="evenodd" d="M597.266 110.785C590.378 110.785 584.212 109.279 578.767 106.269C573.364 103.217 569.115 99.0096 566.022 93.6485C562.969 88.2454 561.443 82.1212 561.443 75.2746C561.443 68.3873 562.969 62.242 566.022 56.8392C569.115 51.3952 573.364 47.1678 578.767 44.1571C584.212 41.1464 590.378 39.641 597.266 39.641C604.196 39.641 610.383 41.1464 615.828 44.1571C621.313 47.1678 625.582 51.3745 628.634 56.7773C631.687 62.1801 633.234 68.3459 633.275 75.2746C633.234 82.1212 631.687 88.2454 628.634 93.6485C625.624 99.0096 621.375 103.217 615.889 106.269C610.403 109.279 604.196 110.785 597.266 110.785ZM597.266 95.257C600.896 95.257 604.113 94.4321 606.918 92.7821C609.723 91.0914 611.888 88.7401 613.414 85.7296C614.941 82.6777 615.704 79.193 615.704 75.2746C615.704 71.3155 614.941 67.8098 613.414 64.7578C611.888 61.7058 609.723 59.355 606.918 57.7053C604.113 56.0143 600.896 55.1689 597.266 55.1689C593.678 55.1689 590.481 56.0143 587.677 57.7053C584.913 59.355 582.768 61.7058 581.242 64.7578C579.715 67.8098 578.973 71.3155 579.015 75.2746C579.015 79.193 579.777 82.6777 581.304 85.7296C582.871 88.7401 585.016 91.0914 587.738 92.7821C590.502 94.4321 593.678 95.257 597.266 95.257Z" fill="white"/>
<path d="M651.526 41.1257H632.718L653.073 109.3H669.531L682.919 65.7571L697.375 109.3H713.584L734 41.1257H716.989L705.408 83.5598L692.611 41.1257H676.151L663.414 84.4949L651.526 41.1257Z" fill="white"/>
</g>
<defs>
<clipPath id="clip0_1106_31">
<rect width="734" height="123" fill="white"/>
</clipPath>
</defs>
</svg>
