<svg width="259" height="115" viewBox="0 0 259 115" fill="none" xmlns="http://www.w3.org/2000/svg">
<g clip-path="url(#clip0_1134_127)">
<path d="M25.9447 85.6693C12.0188 85.6693 0 77.4657 0 60.8195H13.8051C13.8051 68.6679 19.5172 72.7108 25.9447 72.7108C32.2513 72.7108 37.8474 69.0253 37.8474 59.8704V0H51.7732V61.0564C51.7709 78.5355 39.5128 85.6693 25.9447 85.6693Z" fill="white"/>
<path d="M70.8688 17.5134C66.1089 17.5134 62.0625 13.5893 62.0625 8.7159C62.0625 3.96083 66.1089 0.036377 70.8688 0.036377C75.7492 0.036377 79.5565 3.96083 79.5565 8.7159C79.5565 13.5893 75.7469 17.5134 70.8688 17.5134ZM64.3227 25.3784H77.4149V85.2846H64.3227V25.3784Z" fill="white"/>
<path d="M110.514 85.5191C99.0875 85.5191 90.1626 79.2163 90.1626 65.7817V8.94617H103.254V25.474H117.657V37.126H103.254V63.6398C103.254 71.0125 106.467 73.6279 113.252 73.6279C115.752 73.6279 118.37 73.2705 120.275 72.5581V84.2102C117.654 85.0433 114.56 85.5191 110.514 85.5191Z" fill="white"/>
<path d="M125.415 65.7817C125.415 79.2163 134.339 85.5191 145.766 85.5191C149.812 85.5191 152.906 85.0433 155.526 84.2102V72.5581C153.622 73.2705 151.004 73.6279 148.504 73.6279C141.719 73.6279 138.506 71.0125 138.506 63.6398V37.126H155.415V25.474H138.506V8.94617H125.415V65.7817Z" fill="white"/>
<path d="M188.521 24.4246C204.112 24.4246 217.204 34.7679 217.204 53.9111C217.204 55.2198 217.204 56.2896 217.086 58.1903H170.312C170.906 67.9397 178.762 74.361 188.639 74.361C196.969 74.361 202.565 70.5551 205.659 65.3243L215.657 72.458C210.301 80.9005 201.018 86.2497 188.521 86.2497C170.43 86.2497 157.459 73.4094 157.459 55.336C157.457 37.8611 170.43 24.4246 188.521 24.4246ZM170.906 48.6803H203.992C202.563 40.1194 195.661 35.4826 188.043 35.4826C180.423 35.4826 172.69 39.8825 170.906 48.6803Z" fill="white"/>
<path d="M225.081 25.7017H238.172V36.284C240.433 29.5076 247.1 25.1075 253.883 25.1075C255.548 25.1075 257.216 25.2259 259 25.5833V39.0201C256.74 38.3074 254.835 37.95 252.454 37.95C244.955 37.95 238.172 44.2509 238.172 56.1419V85.1526H225.081V25.7017Z" fill="white"/>
</g>
<defs>
<clipPath id="clip0_1134_127">
<rect width="259" height="115" fill="white"/>
</clipPath>
</defs>
</svg>
