<svg width="800" height="98" viewBox="0 0 800 98" fill="none" xmlns="http://www.w3.org/2000/svg">
<path d="M43.5355 51.0223L87.0711 93.8792H0L43.5355 51.0223Z" fill="#FF2638"/>
<path d="M0 8.16553L43.5355 51.0224L87.0711 8.16553H0Z" fill="#FFC600"/>
<path d="M43.5425 51.0224L87.078 93.8792L130.614 51.0224L87.078 8.16553L43.5425 51.0224Z" fill="#0079F2"/>
<path d="M787.88 28.4779C787.88 29.1007 787.019 29.3735 786.614 28.8977C783.43 25.1963 778.168 22.3905 770.968 22.3905C755.386 22.3905 746.528 34.9712 746.528 50.2037C746.528 65.3383 755.386 77.912 770.968 77.912C778.266 77.912 783.969 75.358 787.509 70.9499C787.908 70.4601 788.797 70.726 788.797 71.3557V76.0647C788.797 76.4146 789.077 76.6945 789.419 76.6945H799.369C799.719 76.6945 799.999 76.4146 799.999 76.0647V0.629733C799.999 0.281941 799.717 0 799.369 0H788.503C788.158 0.0038342 787.88 0.284655 787.88 0.629733V28.4779ZM788.384 50.2037C788.384 59.7197 782.786 67.1785 773.515 67.1785C764.349 67.1785 758.646 59.7127 758.646 50.2037C758.646 40.4918 764.349 33.131 773.515 33.131C782.786 33.131 788.384 40.4918 788.384 50.2037ZM743.505 23.7899C743.506 23.4642 743.256 23.1928 742.931 23.1672C742.545 23.1374 742.157 23.1188 741.77 23.1112C734.283 23.1112 729.924 26.1129 727.524 29.0517C727.118 29.5415 726.187 29.2756 726.187 28.6319V24.2447C726.187 23.8996 725.909 23.6188 725.564 23.615H715.608C715.263 23.6188 714.985 23.8996 714.985 24.2447V76.0647C714.985 76.4146 715.265 76.6945 715.608 76.6945H726.481C726.826 76.6906 727.104 76.4098 727.104 76.0647V49.0842C727.104 38.8545 732.198 34.3554 740.755 34.3554C741.483 34.3554 742.252 34.4254 742.784 34.4744C742.965 34.494 743.146 34.4371 743.283 34.3175C743.419 34.1978 743.5 34.0264 743.505 33.8446V23.7899ZM692.182 51.848C692.363 51.8216 692.546 51.8751 692.684 51.9947C692.823 52.1142 692.902 52.2879 692.902 52.4707V55.1156C692.902 62.2736 688.116 68.41 678.334 68.41C672.527 68.41 668.958 66.4648 668.958 61.4549C668.958 57.7745 671.407 55.0177 678.845 53.8842L692.182 51.855V51.848ZM675.892 77.919C683.428 77.919 689.096 75.7219 692.769 71.4117C693.168 70.9359 694.043 71.2018 694.071 71.8315C694.218 74.8753 694.652 76.6875 694.736 76.6875H705.294C705.742 76.6875 706.057 76.2257 705.917 75.7989C705.182 73.4758 704.713 69.7114 704.713 66.6677V42.2271C704.713 30.0593 697.38 22.3905 681.903 22.3905C666.307 22.3905 659.918 30.563 658.659 39.5962C658.639 39.7719 658.695 39.9478 658.812 40.0799C658.93 40.2121 659.098 40.288 659.275 40.2889H669.861C670.169 40.2889 670.421 40.065 670.491 39.7641C671.477 35.1671 675.214 32.4173 681.595 32.4173C688.823 32.4173 692.902 35.6849 692.902 42.1291V42.402C692.902 42.7145 692.673 42.9796 692.364 43.0248L677.621 45.0959C663.669 47.0341 657.357 52.8626 657.357 61.8608C657.357 70.9569 662.752 77.919 675.892 77.919ZM625.276 77.919C642.181 77.919 652.774 65.1354 652.774 50.2107C652.774 35.279 642.181 22.3905 625.276 22.3905C608.469 22.3905 597.883 35.279 597.883 50.2037C597.883 65.1354 608.469 77.912 625.276 77.912V77.919ZM610.001 50.2107C610.001 39.8761 616.516 33.131 625.276 33.131C634.141 33.131 640.655 39.8761 640.655 50.2037C640.655 60.4334 634.141 67.1785 625.276 67.1785C616.516 67.1785 610.001 60.4334 610.001 50.2037V50.2107ZM553.248 28.8977C552.843 29.3735 551.989 29.1007 551.989 28.4779V0.629733C551.989 0.281941 551.707 0 551.359 0H540.493C540.145 0 539.863 0.281941 539.863 0.629733V76.0577C539.863 76.4076 540.143 76.6875 540.493 76.6875H550.443C550.793 76.6875 551.072 76.4076 551.072 76.0577V71.2998C551.072 70.67 551.94 70.4042 552.332 70.8939C555.949 75.3371 561.659 77.919 568.894 77.919C584.574 77.919 593.44 65.3383 593.44 50.2107C593.44 34.9712 584.574 22.3905 568.894 22.3905C561.778 22.3905 556.453 25.1963 553.248 28.8977ZM551.576 50.2037C551.576 40.4918 557.174 33.131 566.445 33.131C575.611 33.131 581.321 40.4918 581.321 50.2037C581.321 59.7197 575.611 67.1785 566.445 67.1785C557.181 67.1785 551.576 59.7127 551.576 50.2037ZM529.571 66.6887C529.565 66.4896 529.471 66.3034 529.314 66.1804C529.157 66.0574 528.954 66.0104 528.759 66.052C528.059 66.1919 526.982 66.3669 525.806 66.3669C521.629 66.3669 519.901 64.3167 519.901 60.1255V33.9566C519.904 33.6115 520.185 33.3338 520.53 33.3339H529.151C529.501 33.3339 529.78 33.054 529.78 32.7041V24.2587C529.78 23.9109 529.499 23.629 529.151 23.629H520.523C520.356 23.629 520.196 23.5626 520.078 23.4445C519.96 23.3264 519.894 23.1663 519.894 22.9992V10.4536C519.894 10.1085 519.616 9.82767 519.271 9.82383H508.405C508.057 9.82383 507.775 10.1058 507.775 10.4536V23.0062C507.775 23.1733 507.708 23.3334 507.59 23.4515C507.472 23.5696 507.312 23.636 507.145 23.636H500.358C500.013 23.636 499.732 23.9137 499.728 24.2587V32.7181C499.728 33.068 500.008 33.3479 500.358 33.3479H507.145C507.495 33.3479 507.775 33.6277 507.775 33.9706V61.364C507.775 71.3837 512.463 77.0094 523.259 77.0094C526.254 77.0094 528.255 76.6735 529.109 76.4986C529.383 76.4384 529.577 76.192 529.571 75.9108V66.6887ZM444.081 50.2037C444.081 65.5412 454.877 77.912 470.46 77.912C485.755 77.912 493.69 67.5144 495.397 58.1803C495.428 58.0016 495.378 57.8183 495.261 57.6803C495.143 57.5422 494.97 57.4639 494.788 57.4666H483.579C483.29 57.4692 483.039 57.6637 482.963 57.9424C481.396 63.4071 476.694 67.1785 470.355 67.1785C461.699 67.1785 456.2 60.1255 456.2 50.2037C456.2 40.184 461.699 33.131 470.355 33.131C476.694 33.131 481.396 36.9024 482.963 42.367C483.04 42.6469 483.292 42.8428 483.579 42.8428H494.788C494.97 42.8456 495.143 42.7672 495.261 42.6292C495.378 42.4912 495.428 42.3078 495.397 42.1291C493.69 32.7951 485.755 22.3975 470.46 22.3975C454.877 22.3975 444.081 34.7683 444.081 50.2037ZM423.67 54.192C423.67 62.8823 418.989 67.4864 411.454 67.4864C404.121 67.4864 401.168 62.6794 401.168 55.4235V24.2447C401.168 23.8969 400.886 23.615 400.538 23.615H389.672C389.324 23.615 389.042 23.8969 389.042 24.2447V57.0608C389.042 69.4316 395.668 77.912 408.494 77.912C415.617 77.912 420.48 75.2321 423.202 71.9085C423.614 71.4047 424.594 71.6916 424.594 72.3423V76.0647C424.594 76.4146 424.874 76.6945 425.224 76.6945H435.167C435.516 76.6945 435.796 76.4146 435.796 76.0647V24.2447C435.796 23.8969 435.514 23.615 435.167 23.615H424.3C423.952 23.615 423.67 23.8969 423.67 24.2447V54.192ZM367.624 28.4779C367.624 29.1007 366.764 29.3735 366.358 28.8977C363.174 25.1963 357.912 22.3905 350.712 22.3905C335.13 22.3905 326.265 34.9712 326.265 50.2037C326.265 65.3383 335.13 77.912 350.712 77.912C358.003 77.912 363.706 75.358 367.253 70.9499C367.652 70.4601 368.534 70.726 368.534 71.3557V76.0647C368.534 76.4146 368.814 76.6945 369.164 76.6945H379.113C379.463 76.6945 379.743 76.4146 379.743 76.0647V0.629733C379.743 0.281941 379.461 0 379.113 0H368.247C367.899 0 367.617 0.281941 367.617 0.629733V28.4779H367.624ZM368.128 50.2037C368.128 59.7197 362.53 67.1785 353.259 67.1785C344.093 67.1785 338.384 59.7127 338.384 50.2037C338.384 40.4918 344.093 33.131 353.259 33.131C362.523 33.131 368.128 40.4918 368.128 50.2037ZM293.876 77.919C310.787 77.919 321.374 65.1354 321.374 50.2107C321.374 35.272 310.794 22.3905 293.876 22.3905C277.076 22.3905 266.482 35.279 266.482 50.2037C266.482 65.1354 277.076 77.912 293.876 77.912V77.919ZM278.601 50.2107C278.601 39.8761 285.115 33.131 293.876 33.131C302.741 33.131 309.255 39.8761 309.255 50.2037C309.255 60.4334 302.741 67.1785 293.876 67.1785C285.115 67.1785 278.601 60.4334 278.601 50.2037V50.2107ZM265.09 23.7899C265.091 23.4642 264.841 23.1928 264.516 23.1672C264.132 23.1375 263.747 23.1188 263.361 23.1112C255.875 23.1112 251.508 26.1129 249.108 29.0517C248.703 29.5415 247.779 29.2756 247.779 28.6319V24.2447C247.779 23.8969 247.497 23.615 247.149 23.615H237.2C236.852 23.615 236.57 23.8969 236.57 24.2447V76.0647C236.57 76.4146 236.85 76.6945 237.2 76.6945H248.066C248.416 76.6945 248.696 76.4146 248.696 76.0647V49.0842C248.696 38.8545 253.782 34.3554 262.34 34.3554C263.075 34.3554 263.837 34.4254 264.369 34.4744C264.55 34.494 264.73 34.4371 264.867 34.3175C265.004 34.1978 265.085 34.0264 265.09 33.8446V23.7899ZM187.633 71.8735C187.633 71.2438 188.5 70.9709 188.913 71.4537C192.111 75.1971 197.435 77.919 204.544 77.919C220.225 77.919 229.09 65.3383 229.09 50.2107C229.09 34.9712 220.225 22.3905 204.544 22.3905C197.302 22.3905 191.593 25.0564 187.975 29.4575C187.584 29.9403 186.716 29.6674 186.716 29.0377V24.2447C186.716 23.8969 186.434 23.615 186.086 23.615H176.143C175.796 23.615 175.514 23.8969 175.514 24.2447V97.3287C175.514 97.6786 175.794 97.9585 176.143 97.9585H187.01C187.36 97.9585 187.64 97.6786 187.64 97.3287V71.8735H187.633ZM187.227 50.2037C187.227 40.3869 192.824 32.921 202.095 32.921C211.262 32.921 216.971 40.3869 216.971 50.2037C216.971 59.7197 211.262 67.1785 202.095 67.1785C192.831 67.1785 187.227 59.7127 187.227 50.2037Z" fill="white"/>
</svg>
