<svg width="1129" height="143" viewBox="0 0 1129 143" fill="none" xmlns="http://www.w3.org/2000/svg">
<path fill-rule="evenodd" clip-rule="evenodd" d="M116.347 0C85.3214 0 65.9302 15.6 58.1737 46.8C69.8084 31.2 83.3823 25.35 98.8952 29.25C107.746 31.473 114.072 37.934 121.074 45.0797C132.481 56.7233 145.684 70.2 174.521 70.2C205.547 70.2 224.938 54.6 232.695 23.4C221.06 39 207.486 44.85 191.973 40.95C183.122 38.727 176.796 32.266 169.794 25.1203C158.387 13.4767 145.184 0 116.347 0ZM58.1737 70.2C27.1477 70.2 7.75649 85.8 0 117C11.6347 101.4 25.2086 95.55 40.7216 99.45C49.5726 101.677 55.8984 108.134 62.9008 115.28C74.3072 126.923 87.5104 140.4 116.347 140.4C147.373 140.4 166.765 124.8 174.521 93.6C162.886 109.2 149.312 115.05 133.799 111.15C124.948 108.927 118.623 102.466 111.62 95.3203C100.214 83.6767 87.0106 70.2 58.1737 70.2Z" fill="#38BDF8"/>
<path fill-rule="evenodd" clip-rule="evenodd" d="M349.025 59.1586H328.72V98.6786C328.72 109.217 335.597 109.053 349.025 108.394V124.367C321.842 127.66 311.035 120.085 311.035 98.6786V59.1586H295.97V42.0331H311.035V19.9158L328.72 14.6465V42.0331H349.025V59.1586ZM426.426 42.0331H444.111V124.367H426.426V112.511C420.203 121.238 410.542 126.507 397.77 126.507C375.5 126.507 356.997 107.571 356.997 83.2C356.997 58.6646 375.5 39.8925 397.77 39.8925C410.542 39.8925 420.203 45.162 426.426 53.7246V42.0331ZM400.554 109.547C415.291 109.547 426.426 98.514 426.426 83.2C426.426 67.886 415.291 56.8533 400.554 56.8533C385.816 56.8533 374.681 67.886 374.681 83.2C374.681 98.514 385.816 109.547 400.554 109.547ZM473.585 29.6831C467.363 29.6831 462.287 24.4138 462.287 18.3211C462.291 15.3095 463.485 12.4228 465.6 10.2933C467.72 8.16374 470.59 6.96484 473.585 6.95912C476.58 6.96484 479.45 8.16374 481.57 10.2933C483.686 12.4228 484.88 15.3095 484.884 18.3211C484.884 24.4138 479.808 29.6831 473.585 29.6831ZM464.743 124.367V42.0331H482.428V124.367H464.743ZM502.896 124.367V4.15979H520.581V124.367H502.896ZM635.368 42.0331H654.036L628.327 124.367H610.97L593.94 68.874L576.746 124.367H559.389L533.681 42.0331H552.348L568.232 98.8433L585.425 42.0331H602.291L619.321 98.8433L635.368 42.0331ZM675.978 29.6831C669.755 29.6831 664.679 24.4138 664.679 18.3211C664.684 15.3095 665.877 12.4228 667.993 10.2933C670.113 8.16374 672.983 6.96484 675.978 6.95912C678.973 6.96484 681.843 8.16374 683.963 10.2933C686.079 12.4228 687.272 15.3095 687.276 18.3211C687.276 24.4138 682.2 29.6831 675.978 29.6831ZM667.135 124.367V42.0331H684.82V124.367H667.135ZM748.354 39.8925C766.694 39.8925 779.794 52.4073 779.794 73.814V124.367H762.109V75.6253C762.109 63.1106 754.904 56.524 743.77 56.524C732.143 56.524 722.974 63.44 722.974 80.236V124.367H705.289V42.0331H722.974V52.572C728.377 44.0093 737.22 39.8925 748.354 39.8925ZM863.633 9.09979H881.318V124.367H863.633V112.511C857.411 121.238 847.75 126.507 834.977 126.507C812.708 126.507 794.204 107.571 794.204 83.2C794.204 58.6646 812.708 39.8925 834.977 39.8925C847.75 39.8925 857.411 45.162 863.633 53.7246V9.09979ZM837.761 109.547C852.498 109.547 863.633 98.514 863.633 83.2C863.633 67.886 852.498 56.8533 837.761 56.8533C823.024 56.8533 811.889 67.886 811.889 83.2C811.889 98.514 823.024 109.547 837.761 109.547ZM940.595 126.507C915.869 126.507 897.365 107.571 897.365 83.2C897.365 58.6646 915.869 39.8925 940.595 39.8925C956.642 39.8925 970.561 48.2906 977.111 61.1346L961.882 70.0266C958.28 62.2873 950.256 57.3473 940.431 57.3473C926.021 57.3473 915.05 68.38 915.05 83.2C915.05 98.02 926.021 109.053 940.431 109.053C950.256 109.053 958.28 103.948 962.21 96.3733L977.438 105.101C970.561 118.109 956.642 126.507 940.595 126.507ZM1006.59 64.7573C1006.59 79.742 1050.63 70.6853 1050.63 101.149C1050.63 117.615 1036.39 126.507 1018.7 126.507C1002.33 126.507 990.538 119.097 985.298 107.241L1000.53 98.3493C1003.15 105.759 1009.7 110.205 1018.7 110.205C1026.56 110.205 1032.62 107.571 1032.62 100.984C1032.62 86.3286 988.573 94.562 988.573 65.0866C988.573 49.608 1001.84 39.8925 1018.54 39.8925C1031.97 39.8925 1043.1 46.15 1048.83 57.018L1033.93 65.416C1030.98 58.994 1025.25 56.03 1018.54 56.03C1012.15 56.03 1006.59 58.8293 1006.59 64.7573ZM1082.07 64.7573C1082.07 79.742 1126.12 70.6853 1126.12 101.149C1126.12 117.615 1111.88 126.507 1094.19 126.507C1077.82 126.507 1066.03 119.097 1060.79 107.241L1076.01 98.3493C1078.63 105.759 1085.18 110.205 1094.19 110.205C1102.05 110.205 1108.11 107.571 1108.11 100.984C1108.11 86.3286 1064.06 94.562 1064.06 65.0866C1064.06 49.608 1077.32 39.8925 1094.03 39.8925C1107.45 39.8925 1118.59 46.15 1124.32 57.018L1109.42 65.416C1106.47 58.994 1100.74 56.03 1094.03 56.03C1087.64 56.03 1082.07 58.8293 1082.07 64.7573Z" fill="white"/>
</svg>
